<?xml version="1.0" encoding="UTF-8" standalone="no"?>
<!-- Created with Inkscape (http://www.inkscape.org/) -->

<svg
   xmlns:dc="http://purl.org/dc/elements/1.1/"
   xmlns:cc="http://creativecommons.org/ns#"
   xmlns:rdf="http://www.w3.org/1999/02/22-rdf-syntax-ns#"
   xmlns:svg="http://www.w3.org/2000/svg"
   xmlns="http://www.w3.org/2000/svg"
   xmlns:xlink="http://www.w3.org/1999/xlink"
   xmlns:sodipodi="http://sodipodi.sourceforge.net/DTD/sodipodi-0.dtd"
   xmlns:inkscape="http://www.inkscape.org/namespaces/inkscape"
   width="744.09448"
   height="652.35999"
   id="svg3140"
   version="1.1"
   inkscape:version="0.47 r22583"
   sodipodi:docname="bola_mapa_redes.svg">
  <defs
     id="defs3142">
    <inkscape:path-effect
       effect="spiro"
       id="path-effect4086"
       is_visible="true" />
    <inkscape:path-effect
       effect="spiro"
       id="path-effect4082"
       is_visible="true" />
    <inkscape:perspective
       sodipodi:type="inkscape:persp3d"
       inkscape:vp_x="0 : 526.18109 : 1"
       inkscape:vp_y="0 : 1000 : 0"
       inkscape:vp_z="744.09448 : 526.18109 : 1"
       inkscape:persp3d-origin="372.04724 : 350.78739 : 1"
       id="perspective3148" />
    <inkscape:perspective
       id="perspective3107"
       inkscape:persp3d-origin="0.5 : 0.33333333 : 1"
       inkscape:vp_z="1 : 0.5 : 1"
       inkscape:vp_y="0 : 1000 : 0"
       inkscape:vp_x="0 : 0.5 : 1"
       sodipodi:type="inkscape:persp3d" />
    <linearGradient
       gradientTransform="matrix(0.55206298,0,0,0.55203462,112.54251,342.34922)"
       gradientUnits="userSpaceOnUse"
       y2="677.90668"
       x2="361.923"
       y1="546.56299"
       x1="843.41949"
       id="linearGradient3815"
       xlink:href="#linearGradient3809"
       inkscape:collect="always" />
    <linearGradient
       id="linearGradient3809"
       inkscape:collect="always">
      <stop
         id="stop3811"
         offset="0"
         style="stop-color:#eeeeec;stop-opacity:1;" />
      <stop
         id="stop3813"
         offset="1"
         style="stop-color:#eeeeec;stop-opacity:0;" />
    </linearGradient>
    <filter
       id="filter7294"
       inkscape:collect="always"
       color-interpolation-filters="sRGB">
      <feGaussianBlur
         id="feGaussianBlur7296"
         stdDeviation="0.53908453"
         inkscape:collect="always" />
    </filter>
    <linearGradient
       gradientTransform="matrix(0.44323118,0,0,0.44320841,165.59841,377.15348)"
       gradientUnits="userSpaceOnUse"
       y2="455.73746"
       x2="585.42865"
       y1="179.52711"
       x1="314.28571"
       id="linearGradient3823"
       xlink:href="#linearGradient3817"
       inkscape:collect="always" />
    <linearGradient
       id="linearGradient3817"
       inkscape:collect="always">
      <stop
         id="stop3819"
         offset="0"
         style="stop-color:#edd400;stop-opacity:1;" />
      <stop
         id="stop3821"
         offset="1"
         style="stop-color:#edd400;stop-opacity:0;" />
    </linearGradient>
    <inkscape:perspective
       id="perspective3231"
       inkscape:persp3d-origin="0.5 : 0.33333333 : 1"
       inkscape:vp_z="1 : 0.5 : 1"
       inkscape:vp_y="0 : 1000 : 0"
       inkscape:vp_x="0 : 0.5 : 1"
       sodipodi:type="inkscape:persp3d" />
  </defs>
  <sodipodi:namedview
     id="base"
     pagecolor="#ffffff"
     bordercolor="#666666"
     borderopacity="1.0"
     inkscape:pageopacity="0.0"
     inkscape:pageshadow="2"
     inkscape:zoom="0.44853175"
     inkscape:cx="866.71788"
     inkscape:cy="197.73627"
     inkscape:document-units="px"
     inkscape:current-layer="layer1"
     showgrid="false"
     inkscape:window-width="1440"
     inkscape:window-height="825"
     inkscape:window-x="0"
     inkscape:window-y="24"
     inkscape:window-maximized="1" />
  <metadata
     id="metadata3145">
    <rdf:RDF>
      <cc:Work
         rdf:about="">
        <dc:format>image/svg+xml</dc:format>
        <dc:type
           rdf:resource="http://purl.org/dc/dcmitype/StillImage" />
        <dc:title />
      </cc:Work>
    </rdf:RDF>
  </metadata>
  <g
     inkscape:label="Capa 1"
     inkscape:groupmode="layer"
     id="layer1"
     transform="translate(0,-400.00218)">
    <path
       transform="matrix(0.55206298,0,0,0.55203462,114.11983,492.01951)"
       d="m 791.42859,404.09448 c 0,157.79565 -127.91865,285.7143 -285.7143,285.7143 C 347.91865,689.80878 220,561.89013 220,404.09448 220,246.29883 347.91865,118.38019 505.71429,118.38019 c 157.79565,0 285.7143,127.91864 285.7143,285.71429 z"
       sodipodi:ry="285.71429"
       sodipodi:rx="285.71429"
       sodipodi:cy="404.09448"
       sodipodi:cx="505.71429"
       id="path2816-14"
       style="color:#000000;fill:#729fcf;fill-opacity:1;fill-rule:nonzero;stroke:none;stroke-width:1.81019628;marker:none;visibility:visible;display:inline;overflow:visible;enable-background:accumulate"
       sodipodi:type="arc"
       inkscape:export-filename="/nfs/proyectos/recursos/redes.png"
       inkscape:export-xdpi="59"
       inkscape:export-ydpi="59" />
    <path
       id="path3631"
       d="m 725.40836,709.67056 c -4.84434,-24.47645 -28.62637,-40.39788 -53.10865,-35.55476 -0.70054,0.13858 -1.38364,0.30636 -2.06996,0.47551 0.19859,-3.68288 -0.0507,-7.43658 -0.80007,-11.22064 -4.84425,-24.47647 -28.62628,-40.39788 -53.10859,-35.55476 -24.48231,4.84311 -40.40752,28.61947 -35.56326,53.09593 2.64201,13.34914 10.92855,24.12622 21.87575,30.40388 -10.82965,6.802 -18.29566,17.96291 -20.48166,30.55855 -3.4442,0.37853 -6.96465,0.46949 -10.54208,0.23574 -15.12378,-0.98823 -28.56984,-7.50124 -38.50449,-17.43649 9.7724,16.38086 27.15663,27.83507 47.63321,29.17306 0.31655,0.0207 0.63442,0.0276 0.95015,0.0434 0.14372,1.48304 0.35651,2.9698 0.65189,4.46226 3.06833,15.50326 13.73828,27.5652 27.36507,33.09996 -8.72732,10.15788 -12.87804,24.07268 -10.07656,38.2276 4.84424,24.47647 28.62315,40.38202 53.10543,35.5389 19.24444,-3.80691 33.19185,-19.29789 35.9289,-37.644 21.40393,-7.00524 34.69056,-29.04354 30.20849,-51.68985 -1.63144,-8.24308 -5.40518,-15.51255 -10.63449,-21.3478 13.41162,-10.10143 20.64878,-27.29402 17.17092,-44.86634 z"
       style="color:#000000;fill:#cc0000;fill-opacity:1;fill-rule:nonzero;stroke:none;stroke-width:1.81019628;marker:none;visibility:visible;display:inline;overflow:visible;enable-background:accumulate"
       inkscape:export-filename="/nfs/proyectos/recursos/redes.png"
       inkscape:export-xdpi="59"
       inkscape:export-ydpi="59" />
    <path
       style="color:#000000;fill:#babdb6;fill-opacity:1;fill-rule:nonzero;stroke:none;stroke-width:1.81019628;marker:none;visibility:visible;display:inline;overflow:visible;enable-background:accumulate"
       d="m 481.528,996.27057 c 9.19974,-5.53192 16.17904,-13.02922 20.31059,-21.01681 8.10187,-0.48614 16.75266,-3.11312 24.86901,-7.99358 17.38484,-10.45381 26.81501,-27.93854 24.15448,-42.44689 1.65077,-0.79436 3.29611,-1.6798 4.91262,-2.65184 20.9195,-12.57916 30.31705,-35.34887 20.9939,-50.85106 -9.32316,-15.50222 -33.83835,-17.86965 -54.75785,-5.2905 -4.85019,2.91649 -9.08314,6.38443 -12.60518,10.1785 -11.7858,-5.87832 -28.81707,-4.61099 -43.96528,4.49784 -10.63074,6.39238 -18.27969,15.41781 -22.01529,24.78177 -2.45249,-4.38788 -4.17296,-9.28135 -4.9523,-14.54919 -2.64419,-17.87331 6.21947,-34.79088 21.01347,-43.24763 -19.60146,6.19819 -32.35985,25.87503 -29.2548,46.86357 1.04573,7.06836 3.77359,13.4759 7.71342,18.87224 -9.7197,-0.75249 -20.74967,1.81976 -30.93326,7.9433 -20.91951,12.57918 -30.32149,35.34149 -20.99834,50.84362 6.89009,11.45675 22.07818,15.73733 37.98016,12.11546 0.59365,2.3243 1.51333,4.55994 2.77682,6.66073 9.32311,15.5023 33.83834,17.8696 54.75783,5.29047 z"
       id="path3731-2"
       inkscape:export-filename="/nfs/proyectos/recursos/redes.png"
       inkscape:export-xdpi="59"
       inkscape:export-ydpi="59" />
    <g
       transform="matrix(0.9103249,0,0,0.91027814,-103.89464,89.789356)"
       id="g4087">
      <path
         inkscape:export-ydpi="59"
         inkscape:export-xdpi="59"
         inkscape:export-filename="/nfs/proyectos/recursos/redes.png"
         style="color:#000000;fill:#ad7fa8;fill-opacity:1;fill-rule:nonzero;stroke:none;stroke-width:1.81019628;marker:none;visibility:visible;display:inline;overflow:visible;enable-background:accumulate"
         d="m 764.67109,419.75591 c -12.38273,-7.23597 -25.64563,-10.6093 -37.65737,-10.33054 -5.76429,-9.18429 -14.39007,-17.63939 -25.31457,-24.0232 -23.39977,-13.67391 -49.94093,-13.51639 -65.24137,-1.09599 -1.98952,-1.42555 -4.0823,-2.78626 -6.25812,-4.05772 -28.15738,-16.45406 -60.8725,-12.86983 -73.06613,7.99681 -12.19363,20.86665 0.74922,51.11818 28.90663,67.57223 6.52829,3.81488 13.30726,6.55272 20.01265,8.24823 0.66611,17.58277 13.07121,36.73209 33.46053,48.64678 14.30881,8.3615 29.79226,11.54 43.16344,9.91467 -3.57095,5.68785 -8.2038,10.8418 -13.87891,15.13271 -19.25517,14.55867 -44.7683,15.01653 -64.16618,3.09891 19.83276,19.00043 51.07735,21.33832 73.68854,4.24219 7.61491,-5.75757 13.37662,-13.06302 17.17601,-21.14069 5.34962,11.87473 15.4367,23.15339 29.1437,31.16322 28.1574,16.45404 60.8667,12.87978 73.06032,-7.98686 9.01152,-15.42115 4.2912,-35.96723 -10.1496,-52.2834 2.34371,-2.18597 4.37456,-4.69725 6.02705,-7.52511 12.19358,-20.86665 -0.74922,-51.1182 -28.90662,-67.57224 z"
         id="path3592" />
    </g>
    <path
       sodipodi:nodetypes="ccsc"
       id="path2816-6"
       d="m 535.59016,715.25622 c -7.6082,18.33366 -114.89611,-162.98969 -287.39792,0 0,-79.35866 64.3362,-143.69157 143.69896,-143.69157 79.36274,0 143.69896,64.33291 143.69896,143.69157 z"
       style="color:#000000;fill:url(#linearGradient3815);fill-opacity:1;fill-rule:nonzero;stroke:none;stroke-width:1.81019628;marker:none;visibility:visible;display:inline;overflow:visible;enable-background:accumulate"
       inkscape:export-filename="/nfs/proyectos/recursos/redes.png"
       inkscape:export-xdpi="59"
       inkscape:export-ydpi="59" />
    <path
       id="path6111"
       style="fill:#3465a4;fill-opacity:1;fill-rule:nonzero;stroke:none;display:inline"
       d="m 362.94924,567.65558 c -0.55328,0 -1.42855,0.10086 -1.80394,0.60163 -0.36224,0.48306 -0.71007,1.11093 -1.10225,1.503 -0.2349,0.23498 -0.48092,0.90208 -1.10235,0.90208 -0.35852,0 -1.54589,-0.19341 -1.80374,0 -0.47773,0.35861 -1.15166,0.6989 -1.30266,1.3029 -0.19394,0.77579 -0.85088,0.65042 -1.40282,1.20254 -0.31159,0.31167 -1.04027,0.88654 -1.50318,1.00234 -0.60516,0.1512 -1.13621,0.30035 -1.80384,0.30055 -0.50799,0 -1.21351,-0.12237 -1.70359,0 -0.80013,0.2001 -1.21897,0.93121 -1.90391,1.1024 -0.62267,0.15573 -0.90482,0.40472 -1.20251,0.80182 -0.38455,0.51271 -1.27876,0.80163 -1.90401,0.80163 -0.96018,0 -1.00186,0.17519 -1.70359,0.70148 -0.4984,0.37394 -1.36966,0.50106 -2.00426,0.50106 -0.852,0 -2.05912,0.0278 -2.80583,0.40081 -0.5084,0.25445 -1.18243,0.35079 -1.40281,0.90219 -0.35204,0.87995 -0.64705,0.97475 -1.50318,1.40315 -0.4981,0.2492 -1.59591,0.5935 -2.00426,1.00193 -0.31138,0.31157 -0.48411,1.42075 -0.90172,1.50351 0.0298,0.0174 0.65652,0.56478 0.80156,0.60111 0.61628,0.1543 1.41795,0.0999 2.10442,0.0999 0.82978,0 1.55382,0.0999 2.4049,0.0999 0.73187,0 1.16688,-0.50118 1.80385,-0.50118 0.85303,0 1.70216,-3.1e-4 2.50526,0.20051 0.66948,0.16726 1.3004,0.40091 2.00407,0.40091 0.74525,0 1.16522,-0.0411 1.80384,-0.2005 0.81042,-0.20267 1.29844,-0.16129 1.70361,-0.70147 0.35646,-0.47544 0.65682,-0.76817 1.10223,-1.10249 0.35605,-0.267 1.70368,-1.70371 2.00426,-1.70382 0.7468,0 1.29268,-0.22264 2.00407,-0.40071 0.48894,-0.12228 0.50809,-1.30156 1.00218,-1.20264 0.29028,0.0586 0.88588,0.78084 1.20251,0.70147 0.27555,-0.069 0.61657,-0.14379 0.90192,-0.0998 0.28533,0.0433 0.51643,0.26144 0.60125,0.60122 0.16697,0.66782 0.35955,0.6464 0.7014,1.10238 0.16759,0.22347 0.99972,1.21233 0.90183,1.60356 -0.11889,0.47636 -0.23233,1.27501 -0.0999,1.80376 0.13268,0.53123 0.15791,1.11783 0.40073,1.60367 0.16233,0.32474 0.62091,1.08045 0.7015,1.40295 0.15699,0.62838 0.50614,0.6116 0.80177,1.20263 0.35184,0.70416 0.17675,1.01088 -0.0998,1.70361 -0.23706,0.59268 -0.58251,1.27861 -0.40104,2.00447 0.0371,0.14977 0.0629,0.35111 0.0998,0.50118 0.11189,0.44847 0.17613,0.69118 0.30068,0.80151 0.12415,0.11045 0.29882,0.10089 0.80146,0.10089 0.59137,0 1.40652,0 1.7036,0.30054 0.40176,0.40195 0.80176,0.62768 0.80176,1.20265 0,0.41378 -0.22862,1.5174 -0.60146,1.70371 -0.26936,0.13484 -1.10212,0.85845 -1.10212,1.3028 0,0.5582 0.0998,1.18824 0.0998,1.7037 0,0.11261 -0.0279,0.29202 0,0.40103 0.16634,0.66545 0.30788,1.5174 0.60134,2.10452 0.23101,0.46185 0.74898,0.87028 1.00209,1.5033 0.2237,0.55933 0.24571,1.39348 0.5011,1.90422 0.28205,0.56438 0.5642,1.02859 0.80156,1.50321 0.28122,0.5623 0.45034,1.65296 0.90193,2.10472 0.53218,0.53215 0.74494,0.89314 1.2027,1.5031 0.3926,0.52381 0.89131,1.19225 1.30245,1.60346 0.36521,0.3655 0.73763,0.83795 1.2028,1.3029 0.9569,0.95725 1.53479,1.51915 2.70549,2.10462 0.59949,0.29994 1.29585,0.59772 1.90389,0.90198 0.6873,0.3437 1.26829,0.80091 1.80386,1.20265 0.60896,0.4568 1.24212,1.11731 2.10442,0.90187 0.74732,-0.18692 1.89742,-0.0463 2.60542,-0.40101 0.23294,-0.11631 0.48935,-0.19207 0.7014,-0.40061 0.21236,-0.20864 0.3925,-0.51784 0.20042,-0.90218 -0.15616,-0.3123 -0.50099,-0.81954 -0.50099,-1.3027 0,-0.82118 -0.20042,-1.56012 -0.20042,-2.40518 0,-0.59864 -0.036,-1.05948 0.0999,-1.60367 0.10747,-0.43015 0.13794,-1.05123 0,-1.60335 -0.16963,-0.67965 -0.032,-1.33038 -0.20031,-2.00447 -0.13988,-0.55984 -0.0999,-1.28098 -0.0999,-1.90402 0,-0.58402 -0.0329,-1.06944 0.0999,-1.60345 0.15698,-0.62788 0.0998,-1.28252 0.0998,-1.90422 0,-0.53298 -0.0896,-1.12452 0.0999,-1.50331 0.19343,-0.38702 0.44675,-1.31812 1.00209,-1.50341 0.46877,-0.15614 2.10442,-0.51033 2.10442,-1.10217 0,-0.65999 -0.0629,-1.15283 -0.20052,-1.70371 -0.15831,-0.63333 -0.57366,-1.25751 -0.20032,-2.00448 0.42925,-0.85875 1.26952,-1.09158 1.80386,-1.80387 0.30407,-0.40575 0.8308,-0.83085 1.30244,-1.30289 0.35462,-0.35449 1.13323,-0.66266 1.30287,-1.00214 0.21988,-0.43972 0.5011,-1.09425 0.5011,-1.60365 0,-0.35872 0.15593,-1.62559 -0.20054,-1.80386 -0.51858,-0.25929 -1.10211,-0.1682 -1.10211,-0.80174 0,-0.42108 0.45434,-1.39584 0.30057,-1.70371 -0.24304,-0.48644 -0.51406,-0.90527 -1.30276,-1.10239 -0.62153,-0.15531 -1.47611,-0.27523 -2.10432,-0.40081 -0.38057,-0.0762 -1.24636,-0.18794 -1.40293,-0.50106 -0.17848,-0.35717 -0.35266,-1.32904 -0.70151,-1.50351 -0.56852,-0.28429 -1.21062,-0.30046 -1.9041,-0.30046 -0.1752,0 -2.33747,-0.51815 -1.60313,-0.70137 0.72992,-0.18271 0.7083,-0.31465 1.00198,-0.90218 0.16665,-0.3333 0.5014,-0.90147 0.20042,-1.3028 -0.41927,-0.55933 -0.99005,-0.78969 -1.40302,-1.20275 -0.54805,-0.5482 -1.81754,-0.80163 -2.60532,-0.80163 -0.11219,0 -0.19177,0.0268 -0.30067,0 -0.44408,-0.11106 -0.85788,-0.55726 -1.2025,-0.90197 -0.51077,-0.51116 -1.43618,-0.73494 -2.10442,-0.90189 -0.50572,-0.12639 -0.81535,-0.55479 -1.40282,-0.70168 -0.57963,-0.14471 -1.20085,-0.14956 -1.80385,-0.30056 -0.78736,-0.1969 -1.62752,-0.34574 -2.4051,-0.50126 -0.28873,-0.0575 -2.32749,-0.20865 -2.20459,-0.70137 0.0752,-0.3016 0.46239,-1.00214 0.90184,-1.00214 0.60299,0 1.31529,0.11786 1.90409,0 0.76843,-0.15378 1.55682,-0.30086 2.4051,-0.30066 0.77378,0 1.5528,0.0504 2.30465,0.20041 0.93981,0.18805 1.9808,0.069 2.90619,0.30066 0.72694,0.18167 1.84677,0.30056 2.60532,0.30056 1.06858,0 2.31328,-0.0999 3.40729,-0.0999 1.67127,0 3.16404,-0.40071 4.80989,-0.40071 0.95246,0 1.27795,-0.58052 2.00427,-0.70147 0.36799,-0.0618 0.68123,-0.16757 0.80154,-0.30087 0.12065,-0.13289 0.0155,-0.27162 -0.50097,-0.4008 -0.62852,-0.15708 -1.3533,0.0628 -2.00416,-0.0999 -0.48917,-0.12229 -1.26612,-0.30046 -1.80376,-0.30046 -0.77325,0 -1.43533,-0.0998 -2.20458,-0.0998 -0.5505,0 -1.04727,0.1614 -1.60322,0.30056 -0.7325,0.18321 -1.43628,0 -2.20469,0 -0.78654,0 -1.61857,0 -2.4051,0 -1.07672,0 -2.20756,-0.20031 -3.20666,-0.20031 -0.65118,0 -1.28816,-0.0998 -1.80386,-0.0998 -1.0237,0 -2.21034,0 -3.00625,-0.40082 -0.74207,-0.37126 -1.28031,-0.59586 -2.10442,-0.80193 -0.38096,-0.0957 -1.26436,-1.10248 -1.60334,-1.10248 z m 63.93369,1.20264 c -1.25612,0.26175 -2.55291,0.41276 -3.70775,0.70179 -1.46096,0.36509 -2.36167,1.03796 -3.70777,0.70137 -0.9365,-0.23407 -1.82586,-0.30499 -2.80581,-0.50117 0.31807,0.31825 0.1651,0.73307 -0.0999,1.10238 -0.26536,0.36953 -0.69975,0.65032 -0.90193,0.80183 -0.0298,0.0215 -2.31049,0.2771 -2.40509,0.30077 -0.54299,0.13566 -0.33135,0.50116 0,0.90188 0.33165,0.40102 0.83955,0.76117 1.00228,0.80172 1.23905,0.31003 2.80284,1.05072 3.90807,1.60346 0.47506,0.23767 0.6974,0.42521 0.80158,0.70158 0.10437,0.27626 0.0916,0.66555 0.20051,1.10249 0.21544,0.86235 0.34154,1.12277 1.10234,1.5033 0.66527,0.33268 2.15835,0.40092 2.906,0.40092 1.21144,0 3.00274,0.60019 3.90827,0.90187 0.76317,0.25446 1.89659,1.09519 2.40489,1.60346 0.52797,0.52824 1.03152,0.84074 1.60344,1.60367 0.66238,0.88314 1.3326,1.36764 2.20458,1.80375 0.75369,0.37694 1.93201,0.36479 2.405,0.60122 0.86064,0.43056 1.90648,1.10507 2.50537,1.70381 0.70622,0.70652 1.26754,1.36775 1.80364,1.90422 0.69625,0.69633 0.86342,1.47439 1.70359,2.10453 0.86003,0.64527 1.55041,1.14953 2.20468,1.80407 0.75885,0.7588 1.43688,1.13614 2.10442,1.80365 0.52508,0.52536 1.04501,1.2885 1.90401,1.50341 1.16853,0.29221 1.91183,-0.45279 2.9061,-0.70147 0.48709,-0.12208 2.25007,1.71266 2.50505,1.90422 0.59107,0.44302 1.16183,1.32162 1.4031,1.80386 0.27435,0.54904 1.20395,1.30443 1.60334,1.7037 0.77214,0.77229 0.95557,0.92885 1.90393,1.40306 0.38867,0.19433 0.83202,0.22644 1.20239,0.0998 0.37077,-0.12599 0.62595,-0.39988 0.70161,-0.70178 0.20937,-0.83744 0.53074,-1.28417 0.30057,-2.20457 -0.13547,-0.54235 -0.0515,-1.15983 0.20032,-1.60356 0.25207,-0.44363 0.66208,-0.67111 1.40312,-0.30066 0.52929,0.26504 0.86609,1.1311 1.10233,1.60366 0.33301,0.66658 0.80157,1.54808 0.80157,2.50513 0,0.8499 0,1.40418 0,2.30524 0,0.36499 4.21482,2.71182 4.30901,2.8062 0.54031,0.53997 1.26847,0.87913 1.9039,1.30269 0.69946,0.46638 1.15144,0.92659 2.10432,1.40315 0.54041,0.2703 0.83173,0.77157 1.00229,1.3028 0.17035,0.53122 0.2106,1.06173 0.0999,1.5032 -0.12372,0.49541 0.29501,1.6264 0.0998,2.40538 -0.15089,0.60422 -0.26247,1.08314 -0.20041,1.40306 0.0618,0.3199 0.32034,0.46072 1.00198,0.80162 0.98871,0.49437 1.36237,1.27861 2.40511,1.90422 0.54535,0.32732 0.97315,4.15109 1.30275,4.81058 0.37974,0.75941 0.806,1.78615 0.60125,2.60558 -0.22234,0.88922 -0.60125,1.54901 -0.60125,2.50545 0,0.6817 -0.53435,1.63648 -0.70151,2.30502 -0.15923,0.63807 -0.46248,1.31165 -0.60124,1.80397 -0.13877,0.49221 -0.11282,0.81675 0.60124,1.10238 0.92829,0.37149 2.45576,0.80173 3.40709,0.80173 1.00661,0 2.00015,0 3.00625,0 0.47803,0 0.96048,0.95943 1.40302,2.00438 0.44262,1.04496 0.81442,2.16855 0.90202,2.60569 0.18519,0.92761 0.42801,1.32997 1.00199,1.90412 0.75276,0.75304 1.85325,1.40047 2.10442,2.40528 0.28657,1.14706 0.68246,1.44063 0.20041,2.40518 -0.2346,0.46947 -1.88137,0.84054 -2.4051,1.1024 -0.75174,0.37601 -2.01529,0.51321 -3.1064,0.80182 -0.54556,0.14432 -1.04091,0.35501 -1.40302,0.60132 -0.36193,0.24612 -0.60125,0.57169 -0.60125,1.00214 0,0.98103 0.39486,1.39122 0.80176,2.20478 0.44252,0.88562 0.85169,1.56969 1.40293,2.30503 0.0896,0.11981 0.19453,0.295 0.30067,0.40092 0.61113,0.6113 0.5468,1.56434 1.10233,2.30492 0.76575,1.0219 1.14384,1.88735 1.7034,3.00672 0.53876,1.07769 1.75464,1.90618 2.405,3.20681 0.36325,0.72679 1.00228,2.1109 1.00228,3.10685 0,0.78578 0.41463,1.55828 0.60115,2.30515 0.14235,0.5694 0.72045,1.12256 1.30276,1.5033 0.58251,0.38053 1.17265,0.66884 1.70359,0.80162 0.93775,0.23448 2.02548,0.0998 3.00636,0.0998 1.03851,0 1.67486,-0.30045 2.60541,-0.30045 0.53641,0 1.29741,-1.39604 1.60333,-1.80408 0.6696,-0.89291 1.05931,-1.43103 1.30266,-2.40506 0.13124,-0.52526 0.26804,-1.04928 0.30078,-1.60377 0.0319,-0.55407 -0.0731,-1.07501 -0.5011,-1.5031 -0.3647,-0.36489 -0.42677,-0.72443 -0.40093,-1.10259 0.0258,-0.37776 0.13937,-0.75346 0.40093,-1.10229 0.1404,-0.18734 0.20032,-2.58881 0.20032,-2.70584 0,-0.0968 -1.2726,-1.69692 -1.50308,-2.00437 -0.56285,-0.75057 -0.70541,-1.71103 -1.10233,-2.50545 -0.42812,-0.85679 -0.50111,-1.60871 -0.50111,-2.70585 0,-0.84763 0,-1.6578 0,-2.50554 0,-1.14654 -0.52435,-1.52646 -1.10234,-2.10452 -0.60836,-0.60852 -0.58364,-1.13223 -0.80155,-2.00447 -0.14968,-0.59834 -0.0803,-0.94912 0.0998,-1.20254 0.18076,-0.25351 0.5295,-0.42232 0.90182,-0.70168 0.6168,-0.46246 0.80177,-1.43825 0.80177,-2.20457 -2e-4,-0.55325 -0.17354,-1.11299 -0.20041,-1.5034 -0.0267,-0.39052 0.0598,-0.69149 0.50109,-0.80163 0.40597,-0.10191 0.86569,0.23232 1.2024,0.60111 0.3368,0.36901 0.56378,0.81862 0.7014,1.00234 0.52209,0.69623 0.62915,1.09796 1.30296,1.60336 0.90513,0.67924 2.2261,1.01294 3.00625,1.40326 0.82482,0.41254 1.57913,0.83353 2.20458,1.30268 0.7749,0.58135 1.42197,1.12154 1.90381,1.60336 0.46032,0.46041 0.59446,1.36054 1.00229,1.90432 0.42739,0.56993 0.90707,0.70652 1.40292,1.20274 0.53506,0.53515 0.83924,1.57856 1.10234,2.10453 0.2914,0.58299 0.49429,0.80935 0.7013,0.80163 0.2073,-0.0103 0.46465,-0.28244 0.90203,-0.50098 0.27648,-0.13854 -0.43079,-2.22391 -0.5011,-2.50554 -0.19578,-0.78319 -1.30039,-1.89907 -1.60333,-2.50542 -0.32353,-0.64713 -0.21916,-0.92381 0,-0.90209 0.21884,0.0215 0.57593,0.27534 0.80157,0.50106 0.663,0.66308 1.29554,0.88746 1.80384,1.90422 0.22008,0.44024 1.05706,1.0571 1.50319,1.50331 0.65302,0.6534 0.56243,1.24835 0.80155,2.20498 0.0844,0.33823 0.29574,0.41913 0.50111,0.40061 0.20534,-0.0185 0.4599,-0.18682 0.7016,-0.40061 0.48318,-0.42799 0.98005,-1.05895 1.10213,-1.3029 0.29964,-0.59947 0.38942,-1.26831 0.60125,-1.90411 0.27599,-0.82839 0.14113,-1.54335 -0.0999,-2.20488 -0.24147,-0.66165 -0.64552,-1.26266 -0.90202,-1.90423 -0.22935,-0.57342 -0.58395,-1.07376 -0.90182,-1.60345 -0.9636,-1.60613 -1.76155,-3.1221 -2.60532,-4.81047 -0.0411,-0.0824 -0.0597,-0.11724 -0.0998,-0.20051 -19.84638,-32.97316 -51.58179,-57.85142 -89.38702,-68.64969 z m -97.8046,13.22887 c -0.50438,0 -1.30914,0.95552 -1.60322,1.10259 -0.64531,0.32259 -1.31903,1.06431 -1.90423,1.5031 -0.60855,0.4566 -1.12323,0.8675 -1.70337,1.3029 -0.66199,0.49665 -1.10122,0.60143 -2.10443,0.60143 -0.95165,2e-4 -0.97305,0.43621 -1.70359,0.80173 -0.85447,0.42726 -1.64462,1.78594 -2.00427,2.50533 -0.33877,0.678 -0.82514,1.52668 -1.2024,1.90412 -0.45868,0.45886 -1.2762,0.73821 -1.80375,1.00233 -0.62915,0.31436 -0.40082,1.55642 -0.40082,2.20479 0,0.43323 -1.68899,0.50117 -1.80377,0.50117 -0.22986,0 -1.56164,-1.96269 -1.70359,-2.10474 -0.70881,-0.70898 -0.3399,-0.83652 -1.40301,-1.10249 -0.57552,-0.14379 -1.04337,-0.0947 -1.30267,-0.2003 -0.25918,-0.10561 -0.40083,-0.38917 -0.40083,-1.10239 0,-0.77311 0.92551,-1.12606 1.30276,-1.5034 0.45859,-0.45835 1.36124,-0.78094 1.80375,-1.00204 0.64469,-0.32258 0.91644,-0.91649 1.40293,-1.40314 0.60412,-0.60431 0.70141,-1.2991 0.70141,-2.20479 0,-0.28255 -1.42568,-0.86327 -1.7036,-1.00212 -0.63614,-0.31827 -1.04028,-1.0213 -1.80375,-1.40316 -0.0134,0.0103 -0.0865,-0.0103 -0.0998,0 -14.36772,8.07286 -27.24049,18.38282 -38.27997,30.46638 -0.12322,0.61912 -0.18067,1.36362 -0.40094,1.80386 -0.4207,0.84197 -1.01094,1.01109 -1.60333,1.60366 -0.44346,0.44352 -0.67897,1.27253 -1.00199,1.70381 -0.46537,0.62016 -1.17079,0.87008 -1.70359,1.40295 -0.51643,0.51641 -0.50099,1.69105 -0.50099,2.40539 0,0.67595 0.29872,0.92473 0.60115,0.90178 0.30243,-0.0227 0.56523,-0.32867 0.80176,-0.80163 0.29266,-0.58557 1.75878,-1.49456 2.30485,-1.90422 0.74928,-0.5622 1.81621,-0.92678 2.20459,-1.70371 0.35101,-0.7022 0.68586,-1.13995 0.90182,-2.00437 0.28709,-1.14861 0.9222,-1.64391 1.50308,-2.8063 0.20762,0.64877 0.54699,1.44895 1.20258,2.10472 0.29986,0.30005 0.44007,0.73451 0.40084,1.1025 -0.0391,0.36787 -0.25765,0.71578 -0.40084,1.00192 -0.22552,0.45146 -1.1329,1.13317 -1.60342,1.60367 -0.56975,0.57003 -0.8833,0.56416 -1.2024,1.20275 -0.34453,0.68921 -0.91706,0.86163 -1.10225,1.60334 -0.17313,0.69293 -0.52825,1.21119 -0.70141,1.90402 -0.24734,0.98927 -0.0834,1.58647 -0.80185,2.30524 -0.48721,0.48727 -0.76297,1.44854 -0.90193,2.00436 -0.24633,0.98608 -0.68886,1.24321 -1.30266,1.7035 -0.66888,0.50211 -0.91057,1.5378 -1.10235,2.30535 -0.25106,1.0043 -1.44604,2.09001 -1.90401,3.00651 -0.39341,0.78701 -0.70242,0.90373 -1.10223,1.70371 -0.27762,0.55582 -0.31787,1.47201 -0.5011,2.20467 -0.20331,0.81336 -0.66105,1.58287 -1.20249,2.30494 -0.0896,0.12011 -0.29481,0.19484 -0.40074,0.30075 -0.53505,0.53524 -0.90193,1.77021 -0.90193,2.50544 0,0.68459 -0.92301,1.88847 -1.10224,2.6057 -0.24394,0.97568 -0.43541,1.77257 -0.80186,2.50533 -0.4521,0.90467 -0.88051,1.26018 -1.30267,2.10463 -0.46443,0.92936 -0.73526,1.47077 -1.10224,2.20487 -0.29479,0.59011 -0.30055,1.43702 -0.30055,2.20499 0,0.67503 -0.23532,1.74273 -0.40084,2.40508 -0.18365,0.73431 0,1.74725 0,2.50555 0,0.98236 -0.35132,1.55384 -0.90204,2.10451 -0.64529,0.64559 -1.05817,1.02612 -1.30265,2.00448 -0.15471,0.61923 -0.56893,1.43877 -0.90182,2.10432 -0.44046,0.88119 -0.49389,1.39326 -1.10245,2.20498 -0.45878,0.61182 -0.79158,1.56311 -1.00208,2.40518 -0.22357,0.89489 -0.29615,1.5944 -0.7013,2.40519 -0.40805,0.81634 -0.49605,1.38256 -0.70151,2.20477 -0.19919,0.79741 -0.53434,1.36949 -0.80177,1.90433 -0.38643,0.773 -0.40062,1.60222 -0.60125,2.40528 -0.21874,0.87584 -0.30057,1.92718 -0.30057,2.8058 0,0.77033 -0.40083,1.71132 -0.40083,2.60579 0,0.92411 -0.0968,1.6893 -0.30058,2.50553 -0.19672,0.78712 -0.0999,1.62828 -0.0999,2.50545 0,1.24711 -0.30057,2.43987 -0.30057,3.70808 0,0.97506 0.38509,1.13965 0.60125,2.00437 0.19021,0.7618 0.11416,1.65976 0.30046,2.40508 0.0917,0.36417 0.20063,0.66081 0.20063,1.1028 0.30273,1.21181 1.10235,1.57021 1.10235,2.8059 0,0.97146 0.1019,1.40984 0.30035,2.20487 0.19394,0.77549 0,1.80222 0,2.6056 0,0.80224 -0.31024,1.84266 -0.50087,2.60579 -0.0258,0.10294 0,0.19454 0,0.30056 0,0.95859 -0.30058,1.97329 -0.30058,3.0065 0,0.29429 0.59312,1.68755 0.80145,2.10463 0.38685,0.77363 0.59715,1.88672 0.80177,2.70616 0.30264,1.21107 0.64388,2.26046 1.10224,3.40731 0.36501,0.91248 0.40856,1.6224 0.80167,2.60538 0.25734,0.64301 -0.0391,1.84649 0.0998,2.40539 0.19519,0.78074 0.20054,1.69528 0.20054,2.50545 0,0.9132 0.20052,1.63659 0.20052,2.50543 -1.1e-4,0.86771 0.10786,1.63454 0.30056,2.40518 0.23038,0.92236 0.0999,1.60367 0.40084,2.20478 0.5085,1.01738 0.98572,1.23743 1.2025,2.10473 0.21678,0.86761 0.51632,1.66428 0.70151,2.40518 0.21668,0.8673 1.09894,1.59121 1.30265,2.4053 0.27979,1.11926 1.29319,2.11573 1.80375,3.30726 0.31612,0.73771 0.32065,1.64308 0.60136,2.20478 0.26619,0.53256 1.49699,0.99739 1.90389,1.3028 0.38035,0.28521 0.3784,0.60615 0.5011,0.90197 0.1227,0.29604 0.32672,0.55778 0.90182,0.70158 0.68843,0.172 1.1425,0.8568 1.60323,1.20244 0.6068,0.45537 -0.31704,-1.46893 -0.50089,-2.20468 -0.20803,-0.83219 -1.04357,-1.70587 -1.40291,-2.30492 -0.33629,-0.56067 -0.0463,-1.89733 -0.30078,-2.40539 -0.41349,-0.82736 -0.78437,-1.5346 -1.00208,-2.40508 -0.2316,-0.92669 -0.67134,-1.784 -0.90183,-2.70606 -0.23499,-0.94089 -0.59147,-1.58379 -1.00209,-2.40518 -0.49088,-0.98217 -1.10223,-1.34243 -1.10223,-2.50555 0,-0.74676 -0.57304,-2.0479 -0.90191,-2.70573 -0.34608,-0.69232 -0.20043,-2.0862 -0.20043,-2.90645 0,-0.80533 -0.30068,-1.46338 -0.30068,-2.30484 0,-0.9939 -0.27164,-1.98851 -0.50109,-2.90645 -0.21091,-0.84434 -0.50088,-1.59944 -0.50088,-2.50555 0,-0.66976 0.1754,-0.89641 0.30057,-0.80172 0.12506,0.0947 0.20031,0.53308 0.20031,1.10259 0,0.62346 0.84562,1.27717 1.0022,1.90402 0.22089,0.88366 0.3754,1.8018 0.60124,2.70595 0.17767,0.71094 -0.19372,1.72995 0,2.50554 0.22171,0.88747 0.70161,1.40181 0.70161,2.40518 0,0.83786 0.30047,1.44669 0.30047,2.20488 0,0.54852 0.66517,1.65842 0.80166,2.20467 0.21494,0.8603 0.38879,1.75519 0.60125,2.6057 0.18004,0.7198 0.59024,1.65914 0.80167,2.50554 0.17181,0.68758 0.60116,1.53624 1.10224,2.20467 0.43604,0.58136 0.51933,1.6397 0.80187,2.20479 0.4485,0.89745 0.66404,1.42837 1.10214,2.30502 0.35565,0.71115 0.617,1.26523 0.80177,2.00437 0.20906,0.83641 0.9359,1.97195 1.30266,2.70596 0.34926,0.69838 0.74144,1.46285 0.90202,2.10452 0.23675,0.94819 0.46734,2.0372 0.90182,2.90635 0.35164,0.70373 0.69637,1.39286 1.00209,2.00447 0.43748,0.87512 1.01011,1.51103 1.60323,2.10452 0.72477,0.72464 1.73047,1.0745 2.60552,1.50311 0.87515,0.42901 1.57935,0.90599 1.80374,1.80406 0.19405,0.77599 0.82626,1.65265 1.10234,2.20478 0.40815,0.81634 1.17503,1.57608 1.80377,2.20488 1.66354,1.66388 3.06737,3.43768 5.21092,4.50991 0.72591,0.36284 1.20857,0.57755 2.10453,0.80163 0.90357,0.22603 1.63843,0.31825 2.40489,0.70146 0.77285,0.38672 1.49144,0.50117 2.40511,0.50117 0.36337,0 1.28113,0.84641 1.90401,1.00214 0.55512,0.13907 1.45406,-0.18784 2.20446,0 1.03185,0.25794 1.35836,-0.66266 2.40511,-0.4007 0.96926,0.24218 2.45452,2.46735 3.30683,3.10655 0.75482,0.56632 1.54095,1.16321 2.40509,1.90422 0.79035,0.6777 1.33972,1.06163 2.30484,1.3029 0.76883,0.19238 1.19798,0.29808 1.80375,0.60121 0.6484,0.32434 1.73829,0.0999 2.50536,0.0999 0.73507,0 1.47168,1.07099 1.90391,1.5034 1.0271,1.02725 2.23578,1.61158 2.90599,2.50554 0.58879,0.78516 0.92592,1.82785 1.60333,2.50533 0.60969,0.60966 1.46479,1.36446 2.20469,2.10464 0.61215,0.61222 1.31069,1.03424 1.50307,1.80366 0.20578,0.82333 1.19406,1.19852 1.80385,1.5034 0.67208,0.33607 1.57821,0.54491 2.20469,0.70147 0.55884,0.13988 1.46272,1.373 1.90391,1.70381 0.33639,0.2525 2.06375,-0.2004 2.60541,-0.2004 0.70583,0 1.57245,1.02776 2.00437,1.60356 0.49171,0.65619 0.79807,1.20254 1.70338,1.20254 0.93271,0 1.71338,-0.41059 2.30473,-1.00244 0.4693,-0.46885 0.60126,-1.74211 0.60126,-2.40499 0,-0.61613 1.59139,0.78969 1.90401,1.1025 0.48904,0.48913 1.12994,1.23023 1.50317,1.60335 0.70492,0.70507 1.6648,1.626 2.00427,2.30503 0.34051,0.6812 0.14298,1.58925 0.50099,2.30504 0.3999,0.80028 0.72612,1.26862 1.20262,1.90411 0.50787,0.67739 0.50098,1.22344 0.50098,2.30503 0,0.86998 0.20041,1.55683 0.20041,2.40518 0,0.74182 -0.63357,1.03138 -0.80167,1.70382 -0.20113,0.80452 -0.50098,1.36641 -0.50098,2.40529 0,0.72031 -1.30266,1.44453 -1.30266,2.50543 0,0.80184 0.80373,2.01323 1.00188,2.80599 0.22739,0.90981 0.48112,2.0646 0.90204,2.90647 0.48502,0.97033 1.23738,0.84073 1.50295,1.90411 0.22822,0.9129 0.28659,1.8473 0.50111,2.70585 0.20206,0.80863 0.70912,1.13224 0.90191,1.90422 0.1679,0.67183 0.68411,1.2855 1.10246,1.70371 0.51652,0.51662 1.39715,1.0257 2.10421,1.20255 1.28135,0.32021 1.75537,0.83713 2.40511,1.70381 0.57067,0.76106 0.85879,1.57102 1.70348,2.20487 0.83995,0.63014 1.21135,0.70992 1.80364,1.30269 0.13528,0.13515 0.2422,0.19465 0.40105,0.30067 0.79929,0.53308 1.01999,1.21139 2.00416,1.70381 0.79858,0.39936 1.4826,1.06955 2.20459,1.5032 0.91541,0.54945 1.39323,0.94707 2.30483,1.40305 0.78468,0.39258 1.38759,1.14469 2.10443,1.5033 0.78005,0.39021 1.35731,0.71228 2.30484,0.90189 0.76719,0.15367 1.75095,0.43776 2.40511,0.60142 0.99332,0.24847 1.94702,0.42242 2.70556,0.80162 0.71283,0.35635 1.49257,1.19205 1.90391,1.60377 0.59229,0.59216 1.58408,1.04237 2.30505,1.40274 0.54402,0.27256 1.29503,0.7479 1.80365,1.00244 1.01309,0.50662 1.41166,1.23404 2.30484,1.90401 0.68803,0.5163 1.15813,1.15828 1.70347,1.70372 0.66478,0.66513 1.06654,1.56773 1.60334,2.10441 0.64067,0.64116 0.90872,1.33018 1.10244,2.10463 0.24284,0.97218 0.91306,1.52574 1.30266,2.30534 0.38407,0.76818 1.48969,1.21768 2.00417,1.90412 0.49894,0.66525 1.47344,0.97228 2.00417,1.5031 0.69667,0.69695 1.3079,0.90866 1.9041,1.70382 0.57944,0.77269 1.19994,0.99945 1.60324,1.40304 0.56966,0.56961 1.39407,0.84733 1.9039,1.10229 0.15358,0.0762 0.24767,0.14235 0.40104,0.20061 4.24188,-0.21687 8.38136,-0.5477 12.52609,-1.10261 0.0329,-0.0803 0.17673,-0.1056 0.20063,-0.20029 0.2639,-1.05669 1.5534,-1.87941 2.10421,-2.70595 0.56986,-0.85505 1.47373,-0.95612 2.20459,-1.10239 0.86938,-0.17395 1.25448,-0.75346 1.90389,-1.40295 0.66272,-0.66297 1.29638,-1.29414 1.90411,-2.10452 0.59941,-0.79946 0.81465,-1.35384 1.30278,-2.00436 0.57736,-0.77023 0.69891,-1.49827 1.10222,-2.30525 0.46157,-0.92349 0.94939,-1.62723 1.7037,-2.00437 0.87732,-0.4389 1.12972,-1.10918 1.90391,-1.30268 1.03501,-0.25908 1.48383,-0.67173 2.4049,-0.90209 0.74648,-0.18672 1.9744,-1.97452 2.40519,-2.40518 0.63255,-0.63283 1.06314,-1.0501 1.7034,-1.90433 0.23633,-0.31507 0.42759,-0.72804 0.7015,-1.00214 0.21195,-0.26494 0.3895,-0.43652 0.60135,-0.70156 0.35554,-0.44447 0.37171,-1.88735 0.50089,-2.40519 0.18405,-0.73648 0.55895,-1.71895 0.90203,-2.40539 0.35255,-0.70508 0.23665,-1.67521 0.60126,-2.40508 0.40576,-0.81151 0.66095,-1.52255 1.00217,-2.20489 0.38118,-0.76261 0.12477,-1.65235 0.5009,-2.40518 0.38703,-0.77393 0.61812,-1.53696 0.90192,-2.10452 0.40629,-0.81304 0.25898,-1.08129 1.30256,-1.60346 0.55812,-0.27894 1.13085,-1.23105 1.60342,-1.70361 0.44098,-0.44126 0.6869,-1.77463 0.90204,-2.20487 0.37582,-0.75181 1.31851,-1.4189 1.80375,-1.90433 0.38363,-0.38382 0.74587,-1.247 1.10224,-1.60335 0.42636,-0.42644 0.49275,-1.67097 0.60114,-2.10474 0.17314,-0.69137 0.12496,-1.50144 0.30088,-2.20477 0.19362,-0.77487 -0.56306,-1.36476 -0.90202,-1.70381 -0.64314,-0.64311 -1.07353,-1.48148 -1.90391,-2.10463 -0.71406,-0.53565 -1.21178,-0.81089 -1.60334,-1.20243 -0.51518,-0.51517 -1.42936,-0.76468 -2.10462,-1.10229 -0.57623,-0.28841 -1.10162,-0.40092 -2.00406,-0.40092 -0.84738,0 -1.75795,0 -2.60541,0 -0.91399,0 -1.39552,0.20031 -2.20469,0.20031 -0.86354,1e-4 -1.44163,0.20061 -2.30465,0.20061 -0.79445,0 -1.61073,0 -2.40499,0 -0.71921,0 -1.26169,-0.40092 -2.10453,-0.40092 -0.86353,0 -0.94094,-0.58628 -1.40292,-1.20274 -0.41358,-0.55181 -1.51048,-0.70147 -2.20458,-0.70147 -0.94197,0 -1.81373,-0.0998 -2.90609,-0.0998 -1.26179,0 -1.47105,0.33463 -2.4051,0.80182 -0.66095,0.33052 -1.29257,0.79154 -1.7037,1.20265 -0.47866,0.47883 -1.5357,0.77476 -2.10421,1.00213 -0.74732,0.29902 -1.70112,0.17601 -2.4051,0 -0.47938,-0.11991 -0.62668,-0.43653 -0.70141,-0.80183 -0.0751,-0.36499 0,-0.82488 0,-1.30279 0,-0.92792 0.54587,-1.34747 1.10234,-1.90402 0.36193,-0.3622 0.30057,-1.64133 0.30057,-2.20487 0,-1.11979 0.12146,-1.26029 -0.30057,-2.10453 -0.36243,-0.72484 -1.09863,-0.99853 -1.50327,-1.40304 -0.47959,-0.47977 -0.84079,-1.34212 -1.30266,-1.80397 -0.44169,-0.44179 -0.901,-1.30094 -1.2025,-1.90412 -0.29883,-0.59803 -1.14939,-0.92545 -1.70359,-1.20285 -0.68928,-0.34441 -1.73839,-0.45939 -2.30474,-0.60111 -0.69296,-0.17324 -1.68671,0 -2.4052,0 -0.79426,0 -1.51039,0 -2.30474,0 -0.84883,0 -1.50606,0.20041 -2.30484,0.20041 -0.59847,0 -1.17554,0.4007 -2.00428,0.4007 -0.65302,0 -1.25745,-0.90826 -1.70339,-1.5032 -0.58456,-0.77949 -1.30162,-0.90044 -1.80374,-1.40295 -0.5361,-0.53637 -1.18356,-0.68253 -1.60344,-1.10239 -0.49727,-0.49757 -1.86015,-0.74079 -2.50516,-0.90197 -0.94783,-0.23696 -1.74136,-0.46989 -2.4052,-0.80184 -0.91428,-0.45722 -0.94896,-0.89612 -1.40281,-1.80397 -0.38621,-0.77249 -0.70161,-1.19904 -0.70161,-2.00416 0,-0.63807 -0.38952,-1.68127 -0.60115,-2.10463 -0.15295,-0.30621 -0.40412,-0.64053 -0.50098,-0.80182 -0.31026,-0.62078 -0.0422,-0.96385 0.0998,-1.20255 0.14298,-0.2388 0.19394,-0.35254 -0.40072,-0.50106 -0.0721,-0.0176 -1.4616,1.29672 -1.60334,1.40315 -0.63346,0.47503 -1.10934,0.37735 -2.00437,0.60112 -1.32006,0.3302 -1.45973,0.27236 -2.60532,-0.30066 -0.47649,-0.23819 -0.55544,-0.52145 -0.7015,-0.70148 -0.14607,-0.18013 -0.28328,-0.27997 -1.00199,-0.0998 -0.73188,0.18301 -1.27589,0.6881 -1.9041,1.00223 -0.70893,0.3546 -1.0761,0.43139 -1.7036,0.90188 -0.64798,0.48635 -1.80571,0.8534 -2.405,1.3029 -0.55296,0.41481 -2.02002,-0.35871 -2.30493,-0.50097 -0.75144,-0.37621 -0.77183,-1.68549 -0.90184,-2.20477 -0.17541,-0.70188 -0.3755,-0.78742 -0.60124,-0.60142 -0.22534,0.18578 -0.49986,0.69941 -0.70142,1.10238 -0.25908,0.51836 -0.63551,0.66442 -1.00196,0.70148 -0.36657,0.0371 -0.6695,-0.034 -1.0023,-0.2005 -0.0936,-0.0474 0.0999,-2.10566 0.0999,-2.40509 0,-0.39073 -1.26251,-1.46307 -1.40302,-1.60356 -0.37943,-0.37961 -0.61936,-0.28779 -0.80167,0 -0.18209,0.2879 -0.33042,0.76138 -0.50098,1.10239 -0.39033,0.78093 -0.40721,1.73552 -0.60136,2.70594 -0.16386,0.82057 -0.2002,1.67798 -0.2002,2.50545 0,0.57311 -0.49678,0.99781 -0.90193,1.40304 -0.37633,0.37663 -0.43758,-0.14564 -0.40084,-0.90198 0.0371,-0.75623 0.20454,-1.68272 0.0999,-2.20478 -0.16882,-0.84413 -0.4944,-1.57679 -0.70151,-2.40518 -0.172,-0.68839 -0.13802,-1.37855 -0.40083,-1.90422 -0.25075,-0.50158 -0.69183,-0.0844 -1.10224,0.50117 -0.4104,0.58474 -0.83687,1.38319 -1.00199,1.60346 -0.64035,0.85381 -2.01763,1.65461 -2.50525,2.30503 -0.23057,0.30735 -1.53755,0.81892 -1.90411,1.00213 -0.84222,0.42119 -1.90206,1.67725 -2.60541,2.20468 -0.66888,0.50209 -0.60125,1.92655 -0.60125,2.70615 0,0.98289 0.32929,0.84434 -0.20042,1.90402 -0.24984,0.49962 -0.65302,0.47573 -1.00219,0.30066 -0.34904,-0.17509 -0.5682,-0.46803 -0.7014,-0.60122 -0.5573,-0.55727 -0.99056,-0.79895 -1.80375,-1.00224 -0.88833,-0.22203 -1.57821,0.21903 -2.30485,0.4006 -0.98232,0.2459 -1.87724,0.66999 -2.80572,0.9022 -0.75236,0.18815 -1.84153,-0.034 -2.50546,-0.20041 -0.56214,-0.1405 -1.09679,-0.89642 -1.60333,-1.40305 -0.63873,-0.63899 -0.85922,-0.84487 -1.50308,-1.70392 -0.48771,-0.65042 -0.64571,-1.11042 -1.30275,-1.60325 -0.80693,-0.60543 -0.98624,-0.26886 -1.40293,-1.1026 -0.3581,-0.7164 -0.59991,-1.20109 -1.00208,-1.60345 -0.40557,-0.40554 -0.30056,-1.40747 -0.30056,-2.20468 0,-0.78092 -0.20053,-1.76495 -0.20053,-2.60569 0,-0.81088 -0.16017,-1.64256 -0.30057,-2.20488 -0.17602,-0.70425 -0.0999,-1.70392 -0.0999,-2.40528 0,-0.59 -1.0022,-1.17753 -1.50328,-1.30259 -0.83059,-0.20782 -1.41743,-0.40092 -2.70557,-0.40092 -1.07312,0 -1.9387,0 -3.00625,0 -0.79447,0 -1.61065,0 -2.40509,0 -0.60321,0 -0.75547,-0.12732 -1.10225,-0.30086 -0.13733,0 -0.90203,-2.11441 -0.90203,-2.40508 0,-0.87019 -0.20031,-1.55673 -0.20031,-2.40539 0,-0.83148 -0.15277,-1.61313 -0.30068,-2.20457 -0.16326,-0.65362 -0.10951,-1.44011 -0.30068,-2.20499 -0.17323,-0.69293 0,-1.68651 0,-2.40518 0,-0.86916 0.20053,-1.28375 0.20053,-2.20477 0,-0.61678 0.0998,-1.48005 0.0998,-2.20479 0,-0.93255 -0.52569,-1.61591 -1.30275,-2.00436 -0.67815,-0.33927 -1.49566,-0.20051 -2.30475,-0.20051 -0.82791,0 -1.35288,0.21285 -2.10443,0.40081 -0.85159,0.21306 -1.2697,1.16969 -1.60333,1.5035 -0.56768,0.56767 -0.61782,1.46852 -0.80167,2.20468 -0.17601,0.70394 -0.0998,1.70392 -0.0998,2.40539 0,0.39279 -0.87991,1.51493 -1.00229,2.00406 -0.22193,0.88849 -1.44028,1.42189 -2.00407,1.70382 -0.83595,0.4182 -2.27582,-0.0853 -2.90599,-0.40092 -0.5156,-0.25794 -1.43534,-1.74642 -1.70359,-2.10432 -0.43335,-0.57806 -0.90985,-1.01016 -1.30286,-1.40335 -0.53486,-0.53484 -1.01721,-0.8218 -1.60312,-1.60336 -0.45582,-0.6078 -0.78613,-1.2715 -1.0023,-1.70381 -0.37983,-0.75993 -0.48544,-1.27161 -0.90182,-2.10463 -0.37747,-0.7552 -0.8734,-1.54633 -1.30276,-2.40498 -0.4739,-0.94829 -0.49048,-1.39264 -1.10234,-2.00447 -0.63346,-0.63374 -0.80156,-1.51761 -0.80156,-2.40539 0,-0.88943 -0.30068,-1.82372 -0.30068,-2.70595 0,-0.80502 -0.30068,-1.56341 -0.30068,-2.40518 2.1e-4,-0.80522 0,-1.56353 0,-2.40509 2.1e-4,-0.74377 0.5011,-1.35713 0.5011,-2.20487 0,-0.92483 -0.20042,-1.3344 -0.20042,-2.20488 0,-1.0463 0.0844,-1.5631 0.5011,-2.6056 0.26835,-0.67131 1.04028,-1.17855 1.30265,-1.70381 0.31529,-0.63055 0.64798,-1.09754 1.10245,-1.7037 0.45898,-0.61245 1.16441,-0.96838 1.90389,-1.20244 0.73929,-0.23438 1.50587,-0.42675 2.20449,-0.60133 1.0867,-0.27184 2.00066,-0.15141 3.00645,0.0999 1.0904,0.27276 2.15527,0.40091 3.30682,0.40091 0.55473,0 0.82122,0.27226 1.10225,0.50098 0.28101,0.22891 0.55667,0.43723 1.10234,0.30075 0.55565,-0.13906 0.40094,-1.93253 0.40094,-2.40528 0,-0.56725 -0.22152,-0.86504 -0.20053,-1.10229 0.0206,-0.23725 0.27371,-0.43756 0.80167,-0.70167 0.92437,-0.46206 1.05983,-0.60123 2.20469,-0.60123 1.01144,0 1.95753,0.20041 2.90599,0.20041 0.56182,-10e-5 1.37893,0.63941 1.9041,0.90198 0.51109,0.25569 0.82958,0.25794 1.20241,0.30066 0.37293,0.0422 0.71345,0.1828 1.10234,0.70147 0.53278,0.71075 1.29503,1.19493 1.80374,1.70371 0.55544,0.55573 1.61682,0.85845 2.10442,1.10239 0.35751,0.17889 0.29944,1.99923 0.40095,2.40529 0.19341,0.77414 0.6524,1.405 1.00198,2.10453 0.48822,0.9766 0.71695,2.04266 1.10234,3.00671 0.27597,0.68983 0.53465,1.36979 0.80176,1.90411 0.42162,0.84372 0.66446,1.23424 1.4027,1.60345 0.60796,0.30396 1.23597,0.33412 1.90413,0.50108 0.79127,0.19793 1.43338,-0.50808 1.80385,-1.00235 0.28554,-0.38084 0.20814,-0.95344 0.0999,-1.5031 -0.10777,-0.54965 -0.31345,-1.09014 -0.5011,-1.40304 -0.5928,-0.98824 -0.41524,-1.94694 -0.80166,-3.10686 -0.30439,-0.91341 -0.93682,-1.78349 -1.40301,-2.40518 -0.46507,-0.62037 -0.55124,-1.70413 -0.90182,-2.40519 -0.3745,-0.74883 -0.61022,-1.33811 -0.80167,-2.10474 -0.1887,-0.75468 -0.2382,-1.55394 -0.40084,-2.20477 -0.25127,-1.00522 0.3332,-1.83628 1.00198,-2.50534 0.49605,-0.49602 0.56151,-0.8431 0.70161,-1.40315 0.80083,-0.80111 1.23007,-1.75847 1.7036,-2.70574 0.40401,-0.80872 0.60135,-1.46429 0.60135,-2.40539 0,-0.49221 0.45435,-1.00718 1.00197,-1.50331 0.54762,-0.49592 1.19087,-0.98627 1.50318,-1.40295 0.58209,-0.77619 1.38037,-1.55867 1.80375,-2.40528 0.35688,-0.71423 1.06436,-1.25102 1.30275,-2.20477 0.16316,-0.65362 0.10942,-1.44001 0.30059,-2.20488 0.21256,-0.85062 0.3966,-1.58648 0.60114,-2.40508 0.20483,-0.81902 0.19527,-1.52409 0,-2.30514 -0.19013,-0.76106 -0.50727,-1.51586 -0.80167,-2.10462 -0.39744,-0.79515 -0.94752,-1.24814 -1.40281,-1.70382 -0.35905,-0.35902 -0.30047,-1.82908 -0.30047,-2.40498 0,-0.51105 1.53251,-0.50127 2.00406,-0.50127 0.73137,0 1.59849,-0.47462 2.10432,-0.60132 0.46815,-0.11704 1.12088,-1.2396 1.40281,-1.80386 0.35235,-0.70477 0.59199,-1.36558 0.80188,-2.20498 0.22656,-0.90703 -0.20052,-1.60738 -0.20052,-2.40499 0,-0.685 0.75956,-1.43208 1.30265,-1.7037 0.78128,-0.39083 1.24729,-0.70179 2.20479,-0.70179 0.92746,0 1.70946,0.20051 2.60531,0.20051 1.07085,0 1.30998,-0.31506 1.70358,-1.10228 0.29688,-0.59402 0.20043,-1.69733 0.20043,-2.40529 0,-0.81192 -0.0515,-1.60747 -0.20043,-2.20498 -0.12155,-0.48656 0.0957,-0.98288 0.20043,-1.40295 -0.13443,-0.53833 0.96626,-2.16865 1.10224,-2.30492 0.52343,-0.52351 1.10059,-1.05134 1.80385,-1.40305 0.60239,-0.30129 1.3009,-0.79968 1.90411,-1.40306 0.64962,-0.65 1.20662,-1.40717 1.60333,-1.80386 0.58654,-0.58711 0.67084,-1.17197 1.20241,-1.70382 0.25065,-0.25052 0.13649,1.83165 0,2.10453 -0.19517,0.39062 -0.0957,0.66545 0.0998,1.00245 0.1956,0.33647 0.52107,0.68098 0.60136,1.00202 0.13043,0.52124 -0.0865,0.87101 -0.0999,1.10239 -0.0144,0.23128 0.0968,0.40102 0.80156,0.40102 0.98829,0 1.23936,-0.27379 1.60345,-1.00243 0.38858,-0.77724 1.08505,-0.86381 1.80374,-1.40306 0.54433,-0.40823 0.8519,-1.05206 1.40292,-1.60346 0.64756,-0.64785 1.09442,-0.79061 1.70359,-1.60346 0.52446,-0.699 1.22391,-0.71217 2.00416,-1.10228 1.09638,-0.54862 0.59446,-1.30115 1.80375,-1.60355 0.7465,-0.18672 1.21692,-0.83035 1.50318,-1.40295 0.29933,-0.59875 -0.50099,-1.46513 -0.50099,-2.10473 0,-1.02159 -0.27617,-1.40388 -0.80167,-2.10442 -0.28359,-0.37827 -0.55986,-0.44703 -0.80176,-0.40111 -0.24181,0.0463 -0.4065,0.20605 -0.60115,0.40111 -0.47762,0.4777 -0.70161,1.7033 -1.00218,2.30483 -0.41805,0.8361 -0.20763,1.38339 -0.90194,1.90432 -0.50746,0.38053 -1.84595,-1.03394 -2.20468,-1.30301 -0.62914,-0.47204 -1.57132,-0.60131 -2.40489,-0.60131 -0.51438,0 -0.77224,0.19731 -1.00208,0.30056 -0.22986,0.10354 -0.45571,0.0905 -0.80168,-0.60113 -0.27678,-0.55396 -0.18054,-1.72408 -0.30057,-2.20487 -0.10901,-0.4356 -0.37561,-0.61831 -0.5012,-0.80163 -0.12548,-0.18332 -0.0433,-0.45794 0.40093,-0.90209 0.58099,-0.58114 0.90185,-0.33113 0.90185,-1.40325 0,-0.80749 0.69944,-1.40181 1.30275,-1.70351 0.78304,-0.39165 0.36099,-1.00213 1.50317,-1.00213 0.7954,0 1.62196,-0.25991 2.10443,-0.50106 0.45539,-0.228 0.72425,-0.53874 0.7014,-0.80184 -0.0227,-0.26288 -0.27021,-0.4008 -0.80166,-0.4008 -1.0026,0 -1.58183,0.60121 -2.60542,0.60121 -0.63255,0 -1.64718,0.69036 -2.20467,0.80173 -0.80313,0.16068 -1.56948,0.0917 -2.40491,0.30076 -0.86034,0.21502 -1.52643,0.88273 -2.40519,1.10229 -0.77472,0.19382 -1.74303,1.4611 -1.90393,2.10462 -0.25042,1.00265 -1.06805,1.86985 -1.80374,2.6057 -0.73445,0.73451 -1.09174,0.75705 -1.80385,0.40091 -0.0947,-0.0474 1.07754,-2.0549 1.30286,-2.50544 0.51828,-1.03661 0.6872,-1.68919 1.60333,-2.60579 0.69544,-0.69551 1.423,-1.12225 2.00416,-1.70371 0.68268,-0.68254 1.00776,-1.37938 1.90401,-1.60345 0.91335,-0.22841 1.93912,-0.0999 2.90609,-0.0999 0.91759,-2e-4 1.51758,-0.40101 2.30475,-0.40101 0.7326,0 1.5569,-1.01707 2.20459,-1.50311 0.74237,-0.55706 1.94981,-0.53039 2.80603,-0.70168 0.97366,-0.19474 1.3778,-0.45084 1.70339,-1.10239 0.35872,-0.71732 1.30615,-0.6044 1.80395,-1.10248 0.35575,-0.35595 0.39878,-0.7338 0.50099,-1.00214 0.1019,-0.26814 0.18693,-0.47256 0.70141,-0.60122 0.78889,-0.19722 1.65676,-0.13865 2.30484,-0.30056 0.69287,-0.17313 1.58645,0 2.30483,0 0.5642,0 0.93745,-0.0853 1.10234,-0.30065 0.1648,-0.21565 0.20054,-0.58527 0.20054,-1.00214 0,-0.78299 -0.45211,-1.4542 -1.00219,-2.00448 -0.63153,-0.63169 -0.97121,-1.24103 -1.40302,-2.10462 -0.37232,-0.74491 -0.71242,-1.62559 -1.00197,-2.20488 -0.34187,-0.68377 -0.60147,-1.50341 -0.90204,-2.10442 -0.40414,-0.80893 -1.23647,-1.2363 -1.90391,-1.40325 -0.68432,-0.17088 -1.51492,-0.91362 -1.90401,-1.3028 -0.47341,-0.47348 -0.93888,-0.95458 -1.40291,-1.3028 -0.66558,-0.49921 -0.98099,-0.55892 -1.30276,-1.20265 -0.30387,-0.608 -0.7259,-1.15117 -1.10214,-1.9041 -0.29233,-0.58455 -0.71633,-0.93133 -1.00229,-1.50321 -0.30387,-0.60822 -0.0874,-1.57854 -0.30067,-2.00447 -0.28761,-0.57559 -0.50253,-1.50629 -0.80157,-2.10443 -0.33721,-0.6746 -0.55101,-0.80131 -0.90183,-1.5036 -0.44755,-0.89498 0.10089,-1.40182 -0.50129,-2.00417 -0.57088,-0.57126 -0.60403,-1.0538 -1.30266,-1.40326 -0.42851,-0.2141 -0.59826,-0.4108 -0.80156,-0.50086 -0.20349,-0.0906 -0.41998,-0.0411 -0.90183,0.20041 -0.0865,0.0433 -0.7157,1.53162 -0.80176,1.70371 -0.36367,0.72741 -0.87353,0.87336 -1.60334,1.60336 -0.6731,0.67337 -1.06208,1.12214 -1.40302,1.80405 -0.30138,0.60297 -1.51059,0.19846 -1.90401,0.10089 -0.36315,-0.0906 -0.43088,-0.45929 -0.40073,-0.90209 0.0298,-0.44281 0.0906,-0.93935 0,-1.303 -0.17323,-0.69293 0,-1.68642 0,-2.40508 1.1e-4,-0.34441 0.37604,-0.35326 0.80167,-0.40092 0.42596,-0.0474 0.95907,-0.15717 1.20262,-0.40081 0.30097,-0.30139 0.47988,-0.46988 0.50098,-0.70168 0.0206,-0.23159 -0.1156,-0.51661 -0.50098,-0.90177 -0.44973,-0.44982 -1.5774,-0.26907 -2.10443,-0.40103 -1.11687,-0.27925 -1.55773,-0.16612 -2.40522,-0.80172 -0.75008,-0.56252 -1.18674,-1.0395 -1.40291,-1.90401 -0.14142,-0.56654 -1.33611,-0.45939 -1.9039,-0.60144 -0.80053,-0.20029 -1.62927,-0.20029 -2.50515,-0.20029 -0.75123,-2.1e-4 -1.32273,0.60626 -2.10442,0.80173 -0.43882,0.10982 -0.80867,-0.0731 -1.10225,-0.0998 -0.29348,-0.0268 -0.53516,0.036 -0.70151,0.70136 -0.2206,0.88202 -0.57582,1.45225 -0.90192,2.10452 -0.26815,0.53627 -0.30058,1.41962 -0.30058,2.20499 0,0.97649 -0.26465,1.14603 0,2.20477 0.17994,0.72 -0.0669,1.67036 -0.20052,2.20477 -0.20401,0.81625 0.20319,1.59256 0,2.4053 -0.26022,1.04073 -0.54958,1.40593 -0.0999,2.30503 0.4168,0.83384 0.85531,1.01644 1.10215,2.00427 0.19846,0.79432 -0.30058,1.60901 -0.30058,2.40528 0,0.6883 -1.00814,1.51113 -1.30275,1.90413 -0.36903,0.4923 -0.80157,1.32873 -0.80157,2.00426 -1e-4,0.54944 -1.30471,0.95304 -1.60344,1.10249 -0.7961,0.39803 -1.2206,1.05937 -1.70359,1.70371 -0.37541,0.50055 -0.40083,1.69114 -0.40083,2.30513 0,0.78423 -0.20051,1.57186 -0.20051,2.40519 0,0.79462 0,1.61066 0,2.40538 0,0.81346 0.19743,1.2147 0,2.00417 -0.18971,0.75912 -1.10524,1.25421 -1.60324,1.50331 -0.46918,0.23467 -0.91664,-0.0258 -1.20251,-0.40092 -0.28584,-0.37528 -0.50108,-0.91186 -0.50108,-1.20244 1.1e-4,-0.84784 0,-1.75815 0,-2.6059 1.1e-4,-0.67708 -0.20031,-1.47726 -0.20031,-2.20467 0,-0.84763 0,-1.65791 0,-2.50564 0,-0.98073 -0.30779,-1.43115 -0.50121,-2.20468 -0.12196,-0.48788 -1.231,-1.23115 -1.60333,-1.60345 -0.54607,-0.54615 -1.2872,-0.99442 -1.904,-1.303 -0.50726,-0.25342 -1.23954,-0.93904 -1.60333,-1.3027 -0.76441,-0.76477 -1.2341,-1.06534 -1.60333,-1.80406 -0.38169,-0.76365 -1.37914,-0.90188 -2.20469,-0.90188 -0.87474,10e-5 -1.73076,-0.19578 -2.40489,-0.70138 -0.48513,-0.36385 -0.60136,-1.58677 -0.60136,-2.10483 0,-1.00542 -0.12074,-1.80715 -0.30056,-2.70574 -0.14762,-0.73769 -0.0607,-1.76032 0.0999,-2.40518 0.22583,-0.90383 1.2065,-1.61149 1.50306,-2.20488 0.41473,-0.82963 1.7318,-1.43105 2.4051,-2.10453 0.64737,-0.64753 0.99509,-1.5981 1.80375,-2.20498 1.02422,-0.76837 2.08826,-1.34448 3.20667,-1.90411 0.59115,-0.29552 0.66909,-1.1374 0.90193,-1.60336 0.41699,-0.83425 0.67505,-1.577 1.20261,-2.10462 0.64653,-0.64692 1.2137,-1.21366 1.80374,-1.80408 0.51178,-0.51176 1.946,-0.4008 2.20469,-0.4008 0.35315,0 0.99836,1.8967 1.10213,2.10462 0.21946,0.43869 0.38601,0.68161 0.70161,0.80172 0.3155,0.12023 0.80136,0.0854 1.2025,0 0.80196,-0.16982 1.72562,-0.59317 2.80583,-0.90187 0.60155,-0.172 1.32108,-1.31206 1.90389,-1.60367 0.5672,-0.28347 0.60126,-1.60849 0.60126,-2.30501 0,-0.91434 -0.0998,-1.39555 -0.0998,-2.20468 0,-0.45455 -1.32726,-0.96416 -1.60344,-1.1025 -0.38693,-0.19351 -0.42307,-0.63847 -0.30057,-1.10229 0.12228,-0.464 0.42575,-0.92699 0.60125,-1.10238 0.49656,-0.49685 1.35557,-0.84003 2.00406,-1.00223 0.86209,-0.21555 1.65182,-0.17458 2.30484,-0.50118 0.70491,-0.35233 0.89216,-0.79185 1.40313,-1.3028 0.79383,-0.79401 0.8736,-1.29012 1.10213,-2.20477 0.16799,-0.67214 0.0793,-1.7177 0.20031,-2.20467 0.20258,-0.81007 0.9745,-1.5664 1.30287,-2.00459 0.24128,-0.32165 0.34072,-0.60399 0.60124,-0.80172 0.26044,-0.19773 0.59497,-0.30066 1.20261,-0.30066 0.57829,0 0.95381,0.0258 1.2025,0.2006 0.24858,0.17458 0.39445,0.48842 0.60125,0.90178 0.29687,0.59413 0.0998,1.69744 0.0998,2.40549 0,0.85114 -0.66147,1.1623 -1.10244,1.60336 -0.39898,0.39896 1.39776,1.24876 1.60343,1.40305 0.31921,0.23921 0.14184,0.75397 -0.20041,1.3028 -0.34236,0.54882 -0.83987,1.0783 -0.90193,1.20264 -0.26135,0.52259 -0.92436,1.04681 -1.30265,1.80407 -0.50347,1.00697 -0.603,1.15283 -2.00427,1.5032 -0.90863,0.22696 -1.65089,0.92566 -2.20459,1.20244 -0.39557,0.19793 -0.41164,0.47769 -0.30068,0.80183 0.11107,0.32423 0.28226,0.68325 0.40084,0.80172 0.69462,0.6948 0.99458,0.67472 1.90401,0.90199 1.0801,0.27019 1.46438,-0.0515 2.10432,0.80183 0.43491,0.57991 0.61464,0.82808 0.90193,1.40304 0.40804,0.81656 0.87927,1.31268 1.10244,2.20468 0.0988,0.39577 1.58697,0.54317 2.10422,0.80184 0.6732,0.33657 1.72242,0.41017 2.30496,0.70157 0.73762,0.3689 1.07659,0.59473 1.90389,0.80173 0.66807,0.16695 0.8869,0.49725 1.7036,0.70147 0.48761,0.12208 0.78941,0.15903 1.00208,0 0.21267,-0.15913 0.29296,-0.47039 0.40083,-0.90188 0.0896,-0.3582 -0.30315,-0.80234 -0.70152,-1.10229 -0.39814,-0.30014 -0.79249,-0.4465 -0.90193,-0.50126 -0.83932,-0.41986 -1.16625,-0.5652 -1.70358,-1.1024 -0.43563,-0.43601 -0.63069,-0.81788 -0.60114,-1.10249 0.0298,-0.28429 0.28409,-0.48459 0.60114,-0.80162 0.3084,-0.30839 0.63964,-0.2108 1.00229,0 0.36234,0.21081 0.76925,0.5688 0.90183,0.70147 0.3473,0.3475 0.75545,0.25104 1.10223,0 0.34699,-0.25105 0.557,-0.72462 0.60136,-0.90198 0.15924,-0.63725 0.30057,-1.05628 0.30057,-2.00438 0,-0.99142 -0.66219,-1.15951 -0.40083,-2.20487 0.11003,-0.44075 -0.26393,-0.76983 -0.70162,-1.00214 -0.43747,-0.23211 -0.95154,-0.41306 -1.20229,-0.60131 -0.8066,-0.60483 -1.19591,-0.58753 -1.60354,-1.40307 -0.29356,-0.58731 -0.0936,-0.89826 0.20052,-1.00182 0.29471,-0.10396 0.67494,-0.0566 0.90194,0 0.91128,0.22759 1.0769,0.67564 1.70337,1.3027 0.71335,0.7132 0.70872,1.10578 1.50328,1.5032 0.76606,0.3831 0.76358,1.00223 1.60324,1.00223 0.53372,0 0.60145,-1.61631 0.60145,-2.10473 0,-0.85669 -0.40094,-1.49074 -0.40094,-2.40528 0,-0.36283 0.84624,-0.9906 1.00219,-1.3028 0.23686,-0.47409 0.21348,-0.8887 0,-1.20264 -0.2137,-0.31394 -0.58457,-0.58444 -0.80178,-0.80162 -0.57129,-0.57148 -1.06136,-0.82005 -1.40292,-1.50342 -0.39147,-0.78319 -1.22215,-1.12194 -1.904,-1.80375 -0.10293,-0.20627 -0.44437,0.0103 -0.80166,0.0998 -0.35709,0.0906 -0.70974,0.0669 -0.90194,-0.70147 -0.18424,-0.73801 0.2345,-1.73922 0.40083,-2.40538 0.18952,-0.75769 0.61949,-0.97384 0.80179,-1.70372 0.14296,-0.57229 0.45693,-0.73771 0.60124,-0.90177 0.14432,-0.16428 0.17521,-0.3511 -0.0998,-0.90219 -0.19258,-0.38528 -1.21855,-0.80956 -1.60333,-1.00203 -0.63758,-0.31909 -1.03831,-0.83776 -1.40302,-1.20275 -0.35131,-0.35141 -0.20031,-1.86871 -0.20031,-2.40519 0,-0.40122 -0.19321,-0.72298 -0.50119,-0.90198 -0.30778,-0.17868 -0.67651,-0.23808 -1.00199,-0.40071 -0.57643,-0.28861 -1.23759,-0.30066 -2.10452,-0.30066 -0.69255,0 -1.76103,-0.13987 -2.4049,-0.30066 -0.74021,-0.18528 -1.70843,0.17654 -2.20458,0.30066 -0.69296,0.17324 -1.68682,0 -2.4051,0 -0.82133,0 -1.1152,-0.30395 -1.90391,-0.50127 -0.5084,-0.12711 -1.68033,0.89015 -2.10453,1.10229 -0.42995,0.21532 -0.61432,0.0556 -0.70119,-0.30036 -0.0875,-0.35685 -0.10087,-0.85659 -0.10087,-1.20274 0,-0.79474 0,-1.61056 0,-2.40539 0,-0.33824 -0.24716,-0.51898 -0.60126,-0.60122 -0.3541,-0.0824 -0.79489,-0.0998 -1.10235,-0.0998 z m 86.88176,9.7212 c -0.42679,0.0884 -0.78664,0.44147 -0.90194,0.90188 -0.13371,0.53503 -0.19898,1.29733 -0.30056,1.70381 -0.0321,0.12753 -1.98184,-0.2495 -3.10652,0.20051 -0.47566,0.19032 -1.15783,0.48995 -1.60332,0.60133 -0.61175,0.15284 -0.42853,0.59112 -0.30057,1.10238 0.15973,0.63909 1.95722,0.76488 2.50514,0.90208 0.38365,0.0957 0.89977,0.79937 1.30265,1.20265 0.40105,0.40122 1.08249,0.68645 1.50318,1.00203 0.32745,0.24559 0.67311,0.97363 1.10235,1.40315 0.4456,0.4458 1.21352,0.65392 1.80374,0.80162 0.7146,0.1788 1.16194,-0.20029 1.90401,-0.20029 0.60549,0 1.13405,0.30055 1.80386,0.30055 0.69388,0 1.17706,-0.30055 1.80365,-0.30055 0.51035,0 0.71797,-0.82356 1.00217,-1.20254 0.37253,-0.49696 0.40095,-1.26575 0.40084,-1.90433 0,-0.59082 -0.19342,-1.17485 -0.30068,-1.60356 -0.12732,-0.50971 -1.13434,-0.76528 -1.40291,-1.30279 -0.33711,-0.6745 -0.35729,-0.84435 -1.10224,-1.40306 -0.5081,-0.38094 -1.42885,-0.81468 -1.80386,-1.00202 -0.59568,-0.29799 -1.03027,-0.54749 -1.50317,-0.90209 -0.31292,-0.23488 -0.78838,-0.30076 -1.30276,-0.30076 -0.33702,0 -0.76502,0 -1.10235,0 -0.14853,-0.0371 -0.25856,-0.0289 -0.40071,0 z m 35.2736,12.92831 c -0.64613,0.0844 -0.80155,1.05782 -0.80145,1.90412 0,0.85319 -1.14351,1.63433 -1.50328,1.90401 -0.4948,0.37117 2.00694,1.35375 2.20468,1.40326 0.84573,0.21141 1.54858,0.9309 2.40499,1.10228 0.61773,0.12362 1.64092,0.79668 2.40512,1.10239 0.43831,0.17549 0.57479,0.81819 0.7013,1.50341 0.12702,0.6849 0.20042,1.38194 0.20042,1.80396 0,0.87161 0,1.7842 0.20051,2.60569 0.21422,0.8567 0.4554,1.18412 0.20042,2.20457 -0.12177,0.48779 -0.18086,0.86009 -0.20042,1.20275 -0.0196,0.34276 0.034,0.6355 0.40073,1.00214 0.65849,0.65875 2.51227,0.30755 3.30714,1.10238 0.78663,0.78711 1.40095,1.3203 2.30472,2.40529 0.46353,0.55644 -0.0433,1.56054 0.60117,2.20477 0.4421,0.4423 1.90802,0.52537 2.4051,0.40092 0.35028,-0.0875 0.51775,-2.07086 0.60125,-2.40539 0.10487,-0.41934 0.72126,-0.63879 1.4029,-0.70147 0.68164,-0.0628 1.46498,0.0309 1.80376,0.20051 0.60247,0.30128 0.6664,1.24227 0.50119,1.90412 -0.12465,0.49859 -0.0196,0.82664 0.20032,1.10249 0.21977,0.27565 0.54422,0.52278 0.90192,0.70168 0.65952,0.32958 1.54147,0.21574 2.00427,0.0998 0.73516,-0.18393 1.06497,-1.22807 1.40282,-1.90423 0.22912,-0.45823 0.32702,-0.80357 0.40082,-1.10227 0.0741,-0.29871 0.12517,-0.56355 0.60137,-0.80184 0.67381,-0.33709 0.98767,-0.85916 0.80156,-1.60366 -0.20248,-0.81088 -0.42987,-1.56104 -0.80156,-2.30482 -0.49452,-0.98886 -1.53839,-1.35437 -2.40501,-2.00427 -0.66219,-0.49715 -0.59456,-0.67461 -0.80186,-1.5034 -0.13897,-0.55738 -1.09381,-0.99792 -1.7034,-1.3029 -0.5612,-0.2806 -0.92899,-1.26615 -1.60333,-1.60356 -0.97975,-0.48985 -1.91925,-0.63756 -2.80594,-1.30259 -0.90151,-0.67626 -1.69329,-0.91918 -2.60542,-1.60367 -0.88154,-0.66122 -1.65499,-1.45451 -2.4051,-2.20477 -0.73959,-0.73976 -1.46375,-1.06297 -2.00416,-1.60336 -0.66342,-0.6638 -1.70266,-1.05205 -2.405,-1.40314 -0.90758,-0.45373 -1.41722,-0.98784 -2.20458,-1.30291 -0.95112,-0.38043 -1.62813,-0.48233 -2.50537,-0.70158 -0.29964,-0.0751 -0.63685,-0.34193 -0.90171,-0.50095 -0.11334,-0.0289 -0.20845,-0.0124 -0.30089,0 z m -87.58303,47.60364 c -0.26805,0.26823 -0.76309,0.0309 -1.10225,0.20041 -0.36357,0.18197 -0.51941,0.8749 -0.60125,1.20274 -0.13464,0.53802 -0.0875,1.0395 -0.20051,1.60355 -0.12827,0.64096 0.0638,1.65863 0.20051,2.20467 0.10808,0.43232 -0.5857,0.97085 -0.80186,1.40307 -0.22226,0.44507 -0.50749,0.81036 -0.80148,1.20263 -0.34524,0.46052 -0.29264,1.46275 -0.40093,2.00428 -0.12898,0.64526 -0.16068,1.14366 -0.30057,1.70391 -0.10622,0.42459 -0.0998,0.84414 -0.0998,1.3028 0,0.34687 0.82368,0.56199 1.10233,0.70157 0.29892,0.14936 0.45703,-0.20608 0.60125,-0.60133 0.14422,-0.39565 0.26465,-0.86605 0.50099,-1.10248 0.48359,-0.48357 0.73435,-0.70148 1.40292,-0.70148 0.43758,0 0.90624,-0.0999 1.4029,-0.0999 0.27784,0 0.84831,0.17354 1.10234,0.30057 0.48237,0.24116 0.77677,0.47605 1.10224,0.80173 0.38767,0.38774 0.27371,0.84516 0.90204,1.00233 0.51129,0.12774 0.83471,0.40082 1.4028,0.40082 0.58263,0 1.12099,0 1.70382,0 0.42378,0 0.87413,0 1.30254,0 0.61072,0 0.60136,-0.38857 0.60136,-1.00234 0,-0.53915 0.0782,-0.91382 0.2003,-1.40295 0.12477,-0.49952 -0.10786,-0.83219 -0.2003,-1.20285 -0.10882,-0.4352 -0.82319,-0.92328 -1.10245,-1.20244 -0.62276,-0.62283 -1.30636,-0.51568 -1.50308,-1.3031 -0.0917,-0.36602 0.0999,-0.91032 0.0999,-1.30259 0,-0.38177 0.0999,-0.77363 0.0999,-1.20254 0,-0.513 -0.32219,-0.7446 -0.50099,-1.1024 -0.221,-0.44197 -0.63306,-0.4008 -1.10245,-0.4009 -0.44108,0 -1.06673,-0.11312 -1.50307,-0.20051 -0.49327,-0.0988 -0.76709,-0.0659 -1.10214,-0.40092 -0.36718,-0.36695 -0.70161,-0.31013 -0.70161,-0.90188 0,-0.30961 -0.21226,-0.64847 -0.30057,-1.00213 -0.10511,-0.42037 -0.19054,-0.5689 -0.50119,-0.80173 -0.18642,-0.13999 -0.69236,-0.0998 -0.90182,-0.0998 z m 149.01159,3.80833 c -0.51191,0.074 -0.5291,1.93212 -1.10225,2.50554 -0.5296,0.52968 -1.07033,0.66936 -1.50317,1.10208 -0.74392,0.74429 -1.63997,1.4399 -2.4051,2.20508 -0.65551,0.65578 -0.76308,1.95775 -1.10224,2.80621 -0.24274,0.60698 0,1.93613 0,2.60569 0,0.85124 -0.97718,2.19232 -1.30276,3.0063 -0.20424,0.51095 -0.37613,0.74439 -0.7014,0.90209 -0.32528,0.15779 -0.75041,0.16252 -1.30277,0.30065 -0.89749,0.2243 -1.62298,0.41059 -2.40499,0.80184 -0.57109,0.28543 -1.01032,1.51956 -1.30266,2.10462 -0.30273,0.60564 -0.13568,1.7452 -0.30058,2.40508 -0.26752,1.06997 -0.20557,2.27952 0,3.30707 0.16788,0.84043 0.29976,1.60006 0.50099,2.40549 0.21772,0.8707 -0.16099,1.64607 -0.30068,2.20456 -0.21049,0.84261 -0.50016,1.60038 -0.70151,2.4054 -0.20432,0.81799 0.80178,1.63516 0.80178,2.50554 0,0.91712 0.2351,1.76505 0,2.70585 -0.15308,0.61192 0.13741,1.5067 0.50099,2.40518 0.36357,0.89848 0.85766,1.82702 1.00197,2.40518 0.0999,0.39835 -2.07621,3.03687 -2.30474,3.60793 -0.29017,0.72546 -0.71221,1.68838 -1.20239,2.50554 -0.49542,0.82592 0.0999,1.75765 0.0999,2.60569 0,0.88367 0.20019,1.8613 0.20019,2.80611 0,1.16085 0.20053,2.35217 0.20053,3.50778 0,1.03919 -1.05479,2.51521 -1.30266,3.50746 -0.23552,0.94213 0.0165,2.13808 0.40095,2.90657 0.28626,0.5729 -0.23369,2.03555 -0.40095,2.70563 -0.28225,1.12854 0.30059,2.39283 0.30059,3.50757 0,0.15894 0,0.34226 0,0.50128 0,1.54716 1.26384,3.61379 1.60333,5.31144 0.18569,0.92885 -0.33537,1.44195 -0.50099,2.10472 -0.25405,1.01593 0.29614,1.78585 0.50099,2.60549 0.33206,1.32843 0.0648,2.47517 -0.50099,3.60793 -0.28566,0.57157 -0.29163,1.00583 -0.20043,1.5033 0.0917,0.49778 0.30212,1.00564 0.50099,1.50341 0.38447,0.96127 0.0402,2.2656 0.30068,3.30717 0.22152,0.88644 -0.0999,2.49905 -0.0999,3.50757 0,0.7271 -0.29316,1.07058 -0.50098,1.5033 -0.20783,0.43261 -0.32033,0.9234 -0.0999,1.80397 0.0525,0.21193 0.0473,0.48943 0.0999,0.70137 0.18509,0.74028 1.72717,2.29782 2.4048,2.80619 0.47299,0.35471 0.61143,0.73544 0.70151,1.10249 0.0906,0.36706 0.10087,0.7336 0.10087,1.30291 0,1.20244 0.13073,1.93437 0.90172,2.70584 0.47156,0.47174 1.38202,0.40627 1.90421,1.10249 0.42843,0.57137 0.40063,2.17513 0.40063,2.90615 0,0.89231 0.0237,1.4047 0.30077,1.90412 0.27722,0.49941 0.78829,0.98885 1.40283,1.60356 0.26485,0.26485 0.53682,0.43663 0.80167,0.70147 0.62913,0.62943 0.74226,1.74447 1.40291,2.40519 0.61297,0.61325 1.5671,1.38493 2.4052,1.80405 0.50562,0.25281 1.03235,0.0772 1.50297,-0.2005 0.47053,-0.27822 0.86549,-0.64908 1.20271,-0.90208 0.98767,-0.74058 1.72066,-1.43733 2.20457,-2.40518 0.65562,-1.31155 1.81158,-2.74497 2.10424,-4.20905 0.11259,-0.56313 0.27009,-0.9272 0.60135,-1.20264 0.33124,-0.27545 0.84942,-0.47493 1.30264,-0.70158 0.80919,-0.40462 1.57369,-1.28654 2.00417,-2.00437 0.47423,-0.79061 1.32705,-1.32194 2.20469,-1.10229 0.67732,0.16943 1.1497,0.66946 1.50296,1.20244 0.35339,0.53318 0.66815,1.06821 0.80198,1.60377 0.2142,0.8574 -0.65313,1.9074 -1.00229,2.60548 -0.58489,1.17022 -0.31097,2.0513 -1.10223,3.10676 -0.70666,0.94233 -1.06045,2.32109 -1.50318,3.20691 -0.59786,1.19627 -0.44428,3.02328 -0.70142,4.30951 -0.11436,0.57188 -0.52301,1.70865 -0.80176,2.40518 -0.32466,0.81202 -0.70151,2.35567 -0.70151,3.20701 0,1.1272 -1.17749,2.05419 -1.70337,3.10666 -0.6237,1.24753 -1.09011,2.52489 -1.60345,3.80844 -0.38848,0.97157 -0.8626,2.00561 -1.40282,2.90625 -0.47989,0.80029 -0.88514,1.6365 -1.10243,2.50555 -0.20012,0.80069 -0.72931,1.45862 -1.10214,2.20477 -0.35328,0.70642 -0.41679,1.43444 -0.80178,2.20489 -0.71509,1.43022 -2.31122,3.91444 -3.50733,5.11101 -1.03122,1.03168 -2.36898,2.43299 -2.9061,3.50758 -0.35255,0.70538 -0.57211,1.24474 -0.90203,1.90432 -0.48082,0.9623 -1.12282,2.04555 -1.70339,3.20692 -0.40597,0.81202 -1.10799,1.21375 -1.50327,2.00457 -0.40989,0.81985 -0.5962,1.15828 -0.7013,1.60325 22.91306,-26.85011 36.87704,-61.67509 36.87704,-99.71718 0,-19.41418 -3.74666,-37.91301 -10.32149,-55.0199 -0.67011,0.0525 -1.85563,0.30066 -2.60573,0.30066 -0.48276,2.1e-4 -0.84108,0.37261 -1.10213,0.80162 -0.26105,0.42912 -0.41545,0.96076 -0.50109,1.30301 -0.23748,0.95016 -0.18663,2.02897 0.0999,3.0065 0.28697,0.97733 0.76667,1.86891 1.30265,2.40518 0.40629,0.40627 0.65199,0.8007 0.60136,1.10229 -0.0504,0.3018 -0.354,0.50116 -1.00209,0.50116 -0.70182,1.2e-4 -1.11181,-0.11198 -1.40292,-0.30055 -0.2911,-0.18867 -0.44364,-0.44363 -0.80166,-0.80183 -0.67907,-0.67933 -1.29711,-1.24968 -2.20468,-1.70361 -0.80218,-0.40122 -1.48784,-0.74408 -2.20458,-1.10249 -0.51531,-0.25773 -0.9534,-1.70638 -1.20261,-2.20467 -0.39169,-0.78361 -0.70121,-1.5732 -0.70121,-2.50575 -10e-5,-0.63343 -0.64613,-1.59234 -0.90201,-2.10442 -0.30984,-0.61985 -0.73981,-1.27891 -1.10226,-2.00426 -0.40514,-0.81059 -0.77613,-1.35879 -1.50337,-1.90412 -0.0927,-0.07 -0.12703,-0.11085 -0.20032,-0.10087 z m -189.99724,83.48212 c -0.11138,0.0484 -0.2488,0.14832 -0.40094,0.30055 -0.44346,0.44343 -0.3399,0.35707 -1.10224,-0.0998 0.16511,0 2.09238,2.31821 2.50515,3.0066 0.19445,0.32393 0.74928,0.42418 1.30277,0.40082 0.55358,-0.0236 1.08627,-0.13721 1.40302,-0.20051 0.70943,-0.14194 0.89522,-0.56509 0.80155,-1.00213 -0.0936,-0.43725 -0.46682,-0.93493 -0.80155,-1.10249 -0.8688,-0.43468 -1.46334,-0.76685 -2.40511,-1.00204 -0.77903,-0.19505 -0.96904,-0.44734 -1.30265,-0.30066 z m 1.80375,6.71438 c -0.59272,0.10715 -1.48475,0.48263 -1.80375,0.80183 -0.25147,0.25157 -0.0433,0.72247 0.20031,1.20264 0.24395,0.48017 0.59178,0.88273 0.7015,1.10249 0.30716,0.61429 2.1279,0.80163 2.80595,0.80163 0.56974,0 0.8279,-0.25743 0.90171,-0.60122 0.0741,-0.34409 -0.0134,-0.75366 -0.0999,-1.10249 -0.15686,-0.62767 -0.93197,-1.23281 -1.30265,-1.60346 -0.37736,-0.37755 -0.0433,-0.0865 -0.90202,-0.60142 -0.11859,-0.0298 -0.30335,-0.036 -0.50089,0 z m -8.11704,5.41199 c -1.14599,0 -2.22125,0.0329 -3.30691,0.90198 -1.31779,1.05423 -2.9136,2.96924 -3.80782,3.30716 0.19775,0.49459 0.35595,0.92289 0.7013,1.10219 0.34536,0.17972 0.86879,0.16707 1.40301,-0.0998 0.87559,-0.43787 1.45831,-0.62891 2.20469,-1.00203 0.77368,-0.38701 1.36957,-0.70147 2.20459,-0.70147 1.07157,0 1.78666,0.37137 2.70557,0.60122 0.69472,0.17365 1.22422,0.41151 2.00418,0.80173 0.81113,0.40564 1.55484,0.75304 2.20468,1.40315 0.6313,0.63127 1.79675,0.94665 2.40499,1.40284 0.62492,0.46895 1.77781,0.9762 2.40511,1.60356 0.40658,0.40679 1.26631,1.28457 1.9039,1.60366 0.6731,0.33648 1.24759,0.26772 1.80375,0.0999 0.55616,-0.16789 1.13115,-0.40092 1.904,-0.40102 0.56378,0 1.51935,0.0556 2.40511,0.0998 0.88556,0.0442 1.66118,0.0421 2.00405,-0.30067 0.21309,-0.21306 0.50615,-0.50249 0.60126,-0.80173 0.0947,-0.299 -0.0103,-0.55303 -0.60126,-0.70137 -0.84715,-0.21202 -1.59355,-0.47367 -2.50515,-0.70167 -1.26158,-0.31538 -0.86219,-0.8819 -1.90401,-1.40305 -1.18005,-0.5902 -1.52962,-0.75808 -2.90609,-1.1025 -0.90162,-0.2254 -2.2685,-0.36426 -3.00635,-1.10228 -0.66362,-0.6639 -1.01958,-1.86274 -1.70338,-2.20488 -1.19602,-0.59802 -2.1106,-1.42415 -3.50734,-1.70371 -1.39407,-0.27884 -3.09878,-0.70158 -4.50953,-0.70127 -0.41596,0 -0.72026,8.2e-4 -1.10235,0 z m 26.75609,9.11977 c -0.2276,-0.0206 -0.47465,0.0433 -0.70163,0.0999 -0.93156,0.23294 -3.36405,0.0144 -3.50734,0.30056 -0.15882,0.26474 -0.36284,0.52546 -0.50089,0.80172 -0.32229,0.64455 -0.26814,0.8534 -0.0999,1.00224 0.1679,0.14874 0.48382,0.18311 0.80178,0.50107 0.11899,0.11929 0.40186,0.5095 0.50098,0.90197 0.0988,0.39259 0,0.79998 -0.40083,1.00225 -0.0906,0.0453 -2.0407,1.02941 -2.00416,1.10239 0.26424,0.52844 0.53547,0.70137 1.70349,0.70137 0.97203,0 1.64069,0.12794 2.50525,0.30075 0.5817,0.11632 1.85399,0.43859 2.40501,0.30077 1.30306,-0.32588 2.27694,-0.67379 3.1066,-1.5034 0.69987,-0.70013 0.71078,-0.37807 2.00416,-0.70147 0.44747,-0.112 0.98357,-0.0917 1.30267,-0.20041 0.3193,-0.10839 0.5011,-0.33525 0.5011,-0.90209 0,-0.60173 -0.69349,-1.40295 -1.50329,-1.40295 -0.70892,0 -1.65242,0.0258 -2.30464,-0.30066 -0.90686,-0.45372 -0.91335,-1.23064 -2.00427,-1.50331 -0.5122,-0.12824 -1.12106,-0.43889 -1.80364,-0.50116 z m 11.42374,3.50748 c -0.31572,-0.0793 -0.4835,0.37857 -0.50091,0.90228 -0.0175,0.5234 0.14784,1.09262 0.20033,1.30269 0.11622,0.46515 1.74702,0.70138 2.30484,0.70138 0.55749,0 1.00394,0.0165 1.2025,-0.0999 0.19855,-0.11651 0.13968,-0.32186 -0.10087,-0.80173 -0.33816,-0.67677 -0.5363,-1.47077 -1.2023,-1.80396 -0.54999,-0.27493 -1.30462,-0.2003 -1.90412,-0.2005 z m 9.01884,0.70157 c -0.1642,0.12156 -0.25694,0.56303 -0.20041,1.00224 0.0566,0.43941 0.28523,0.82282 1.00218,1.00224 0.70624,0.17672 1.74825,0.11393 2.20458,0 0.37057,-0.0927 0.22677,-0.39475 -0.0999,-0.80194 -0.32691,-0.40678 -0.76048,-0.83117 -1.10222,-1.00183 -0.41031,-0.20545 -1.19345,-0.20071 -1.7036,-0.20071 -0.0411,-0.0206 -0.0535,-0.035 -0.0999,0 z m -32.76846,1.00224 c -0.13341,0.0102 -0.36863,0.0998 -0.50109,0.0998 -0.13341,-0.10932 -1.54693,-0.0278 -2.20449,0.30096 -0.45951,0.22954 -0.75957,0.45259 -0.90203,0.70127 -0.14217,0.24858 -0.14967,0.60225 0.0999,1.10249 0.26104,0.52187 0.29418,0.86648 0.40103,1.1024 0.10654,0.2356 0.30994,0.35315 0.90192,0.50106 0.96144,0.24035 1.82682,0.53977 2.70549,0.0999 0.67926,-0.33978 1.00207,-1.32102 1.00227,-2.10452 0,-0.96714 -0.27062,-1.49591 -1.10244,-1.70392 -0.12857,-0.032 -0.26743,-0.10818 -0.40083,-0.0999 z m 36.97731,3.60783 c -0.51241,0.10889 -0.42359,0.87923 0.0998,1.40314 0.62493,0.62511 1.2796,0.41245 1.70339,0.20052 0.46156,-0.23098 0.28585,-0.61368 -0.0998,-0.90198 -0.38611,-0.28842 -0.97265,-0.49521 -1.00208,-0.50107 -0.30221,-0.15121 -0.53073,-0.23685 -0.70161,-0.20061 z m 3.10639,4.40966 c -0.26895,0.20843 -1.10212,0.89178 -1.10212,1.3029 0,0.39143 0.40752,0.38834 0.90182,0.30065 0.4943,-0.0885 1.02195,-0.26041 1.10234,-0.30065 0.46403,-0.23222 -0.37356,-0.96406 -0.80167,-1.3029 -0.0154,0.0103 -0.0751,-0.0124 -0.10088,0 z m 0.60136,3.60803 c 0.0165,0.0278 0.0813,0.16972 0.0999,0.20029 0.0751,-0.0629 0.112,-0.19515 0.0999,-0.20029 -0.0103,0 -0.11252,-0.0442 -0.20052,0 z m 0.0999,0.20029 c -0.3539,0.29685 -1.46529,1.05134 -1.60322,1.60346 -0.11745,0.46998 1.95681,-0.0762 2.00416,-0.0998 0.46537,-0.23283 -0.0937,-1.01676 -0.40094,-1.50341 z m 4.20896,1.1023 c -0.0453,0.47513 -0.54505,1.77092 -0.0998,2.10473 0.6561,0.49221 0.95534,0.35222 1.10234,0.0998 0.14687,-0.25197 0.13133,-0.6392 0,-0.90187 -0.25097,-0.50199 -0.54167,-0.83272 -1.00209,-1.303 z" />
    <g
       id="g3072"
       transform="matrix(0.72681922,0,0,0.72681922,66.836786,158.20996)">
      <path
         inkscape:export-ydpi="59"
         inkscape:export-xdpi="59"
         inkscape:export-filename="/nfs/proyectos/recursos/redes.png"
         id="path3731"
         d="m 359.07818,457.22094 c -8.89866,1.26411 -16.72653,4.7681 -22.5186,9.57914 -6.40566,-2.26834 -13.9332,-3.065 -21.78392,-1.94975 -16.81588,2.38882 -29.79244,12.79412 -32.47511,24.84893 -1.53207,0.074 -3.08963,0.21992 -4.65323,0.44203 -20.23489,2.8745 -34.91079,17.36549 -32.78046,32.3602 2.13033,14.99472 20.2606,24.81804 40.49548,21.94352 4.69146,-0.66645 9.08693,-1.9595 13.04063,-3.73591 7.16952,8.37757 20.71523,12.95665 35.36769,10.87516 10.28282,-1.46075 19.12567,-5.9245 25.06153,-11.92598 0.45925,4.18346 0.18909,8.51789 -0.92889,12.83397 -3.79327,14.64405 -16.14795,24.79683 -30.31452,26.4911 17.13646,1.61561 33.39458,-9.39414 37.84897,-26.59053 1.50014,-5.79133 1.48757,-11.62187 0.21054,-17.06811 7.24893,3.75123 16.59311,5.36623 26.4434,3.96692 20.23488,-2.87452 34.9118,-17.35833 32.78148,-32.35304 -1.5744,-11.0816 -11.88862,-19.33715 -25.33181,-21.73245 0.30063,-1.98576 0.32098,-4.00957 0.0323,-6.04168 -2.13036,-14.99472 -20.26063,-24.81803 -40.49548,-21.94352 z"
         style="color:#000000;fill:url(#linearGradient3823);fill-opacity:1;fill-rule:nonzero;stroke:none;stroke-width:1.81019628;marker:none;visibility:visible;display:inline;overflow:visible;enable-background:accumulate" />
    </g>
    <path
       inkscape:transform-center-y="-82.655315"
       inkscape:transform-center-x="25.240505"
       id="path3631-8"
       d="m 13.687695,664.75629 c 6.881049,-30.6204 37.293271,-49.87256 67.914727,-42.99277 0.876178,0.19686 1.729537,0.4299 2.586767,0.66473 -0.13058,-4.6373 0.304671,-9.34916 1.368504,-14.08308 6.881013,-30.62039 37.293247,-49.87256 67.914707,-42.99276 30.62138,6.87978 49.87342,37.29015 42.99238,67.91055 -3.75284,16.7 -14.51855,29.98371 -28.48374,37.52397 13.39467,8.90231 22.41989,23.17702 24.76091,39.08531 4.31766,0.58712 8.74048,0.81514 13.24542,0.63666 19.04483,-0.75456 36.15901,-8.51013 48.96952,-20.68213 -12.81485,20.28195 -35.03961,34.12351 -60.82504,35.1451 -0.39859,0.0158 -0.79847,0.0142 -1.1959,0.0237 -0.22858,1.86015 -0.54413,3.72272 -0.96372,5.58981 -4.35841,19.39479 -18.16193,34.21721 -35.4718,40.73687 10.64328,13.05418 15.41164,30.68464 11.43228,48.39266 -6.88106,30.62043 -37.2888,49.85274 -67.9102,42.97297 C 75.952431,857.28002 58.919152,837.35155 56.071149,814.19478 29.389472,804.69569 13.398466,776.55592 19.765013,748.22502 22.082364,737.91283 27.06147,728.89394 33.824084,721.72544 17.290095,708.5911 8.7476077,686.73954 13.687695,664.75629 z"
       style="color:#000000;fill:#f57900;fill-opacity:1;fill-rule:nonzero;stroke:none;stroke-width:1.81019628;marker:none;visibility:visible;display:inline;overflow:visible;enable-background:accumulate"
       inkscape:export-filename="/nfs/proyectos/recursos/redes.png"
       inkscape:export-xdpi="59"
       inkscape:export-ydpi="59" />
    <path
       id="path3631-8-1"
       d="m 223.82034,913.81885 c -9.22625,-13.18316 -6.01686,-31.35545 7.16701,-40.58123 0.37724,-0.26397 0.76029,-0.50681 1.14537,-0.75049 -1.80231,-1.55221 -3.43744,-3.34456 -4.86381,-5.38268 -9.22626,-13.18319 -6.01687,-31.35547 7.16699,-40.58125 13.18386,-9.22578 31.35708,-6.01656 40.58332,7.16663 5.03188,7.18993 6.34693,15.85699 4.38047,23.75256 7.99999,-2.00026 16.5265,-0.48941 23.36325,4.11822 1.71383,-1.4331 3.32791,-3.0301 4.81631,-4.7986 6.29233,-7.47642 9.26488,-16.63943 9.07737,-25.69726 3.25912,11.86059 0.82749,25.06198 -7.69188,35.18455 -0.1317,0.15647 -0.27044,0.30741 -0.40409,0.46129 0.62591,0.72909 1.2227,1.49199 1.78526,2.29584 5.84387,8.35014 6.69269,18.69964 3.18422,27.50994 8.62291,0.47625 16.95066,4.759 22.28627,12.38295 9.22625,13.18319 6.01088,31.34692 -7.17297,40.57274 -10.36321,7.25188 -23.79815,6.82249 -33.55668,-0.0967 -12.81557,6.82832 -29.00202,3.16785 -37.53841,-9.02964 -3.10716,-4.43978 -4.80488,-9.44133 -5.18538,-14.47955 -10.68797,1.72801 -21.91885,-2.5828 -28.54262,-12.04735 z"
       style="color:#000000;fill:#73d216;fill-opacity:1;fill-rule:nonzero;stroke:none;stroke-width:1.81019628;marker:none;visibility:visible;display:inline;overflow:visible;enable-background:accumulate"
       inkscape:export-filename="/nfs/proyectos/recursos/redes.png"
       inkscape:export-xdpi="59"
       inkscape:export-ydpi="59" />
  </g>
</svg>
